<?xml version="1.0" standalone="no"?>
<!DOCTYPE svg PUBLIC "-//W3C//DTD SVG 20010904//EN"
 "http://www.w3.org/TR/2001/REC-SVG-20010904/DTD/svg10.dtd">
<svg version="1.0" xmlns="http://www.w3.org/2000/svg"
 width="232.000000pt" height="237.000000pt" viewBox="0 0 232.000000 237.000000"
 preserveAspectRatio="xMidYMid meet">

<g transform="translate(0.000000,237.000000) scale(0.100000,-0.100000)"
fill="#000000" stroke="none">
<path d="M305 2131 c-49 -22 -91 -69 -105 -119 -7 -25 -10 -186 -8 -481 l3
-444 64 84 c36 46 188 245 338 442 l274 357 190 0 c112 0 189 -4 187 -9 -1 -5
-118 -157 -258 -337 -140 -181 -256 -334 -258 -341 -2 -6 96 -180 218 -385
122 -205 260 -439 308 -521 l87 -147 310 2 c301 3 311 4 352 26 24 12 55 41
70 64 28 41 28 43 31 239 l3 198 -64 -43 c-92 -61 -172 -87 -292 -93 -174 -9
-309 41 -431 162 -124 121 -181 269 -171 440 13 215 129 389 322 483 90 44
150 57 255 57 118 0 215 -29 308 -92 36 -24 66 -43 68 -43 2 0 4 81 4 180 0
140 -3 189 -15 218 -21 49 -52 81 -100 103 -38 18 -83 19 -845 19 -760 0 -807
-1 -845 -19z"/>
<path d="M452 923 c-34 -43 -107 -136 -162 -208 l-100 -130 2 -111 c3 -102 5
-114 31 -152 15 -23 46 -52 70 -64 41 -22 52 -23 351 -26 273 -3 308 -1 303
12 -5 13 -425 746 -432 754 -1 1 -30 -32 -63 -75z"/>
</g>
</svg>
