<svg xmlns="http://www.w3.org/2000/svg" width="736" height="736" viewBox="0 0 736 736">
<g>
<path d="M 0.00 0.00 L 736.00 0.00 L 736.00 736.00 L 0.00 736.00 ZM 57.38 729.54 L 59.50 735.95 L 371.33 735.98 L 683.16 736.00 L 687.59 732.37 C693.03,727.92 697.11,720.81 718.74,678.18 C731.91,652.23 734.90,645.59 733.95,644.44 C733.04,643.34 733.08,640.32 734.14,631.26 C736.52,610.74 736.18,607.47 730.08,591.50 C721.90,570.10 716.62,559.58 712.47,556.41 C707.70,552.77 696.74,549.30 663.83,540.98 C635.03,533.71 595.02,521.64 579.51,515.54 C574.56,513.59 569.53,512.00 568.33,512.00 C567.13,512.00 564.82,510.88 563.18,509.50 C560.42,507.17 557.29,506.05 558.35,507.76 C558.91,508.66 563.71,526.19 565.53,534.00 C569.35,550.33 580.78,586.98 588.38,607.25 C590.39,612.61 595.22,624.31 599.12,633.25 C603.03,642.19 607.38,652.20 608.79,655.50 C611.64,662.15 612.96,676.60 611.29,683.00 C610.54,685.92 609.88,686.55 607.36,686.80 C605.53,686.98 603.82,686.49 603.04,685.55 C601.95,684.24 602.06,684.00 603.77,684.00 C606.37,684.00 607.17,680.82 607.10,670.72 C607.04,661.08 606.22,657.98 599.27,641.00 C585.91,608.37 575.33,577.35 567.04,546.50 C561.38,525.45 561.61,526.22 553.08,499.41 C549.04,486.71 546.00,478.93 544.00,476.16 C542.34,473.87 540.65,472.00 540.24,472.01 C539.83,472.02 537.70,475.47 535.50,479.69 C533.30,483.91 527.50,493.47 522.60,500.93 C515.44,511.85 512.27,518.01 506.35,532.50 C502.30,542.40 497.48,552.67 495.64,555.32 C493.80,557.97 480.60,571.92 466.31,586.32 C428.42,624.49 410.60,643.29 394.13,662.43 C386.08,671.79 375.64,683.51 370.93,688.47 C366.22,693.44 361.61,698.61 360.68,699.97 C358.64,702.97 358.50,709.54 360.38,714.13 C362.62,719.61 363.19,722.00 362.25,722.00 C361.09,722.00 354.99,708.10 355.00,705.48 C355.00,702.17 361.37,693.48 372.83,681.12 C383.21,669.93 390.00,661.83 390.00,660.65 C390.00,660.34 386.82,656.13 382.92,651.29 C379.03,646.46 372.40,637.33 368.18,631.00 C362.64,622.67 356.77,615.71 346.94,605.75 C339.47,598.19 333.69,592.00 334.10,592.00 C334.51,592.00 341.35,598.41 349.31,606.25 C359.43,616.22 365.56,623.22 369.73,629.55 C376.46,639.77 385.88,652.69 389.29,656.37 L 391.57 658.83 L 397.04 652.25 C403.77,644.13 412.88,634.02 422.93,623.50 L 423.64 622.76 C489.24,554.14 492.59,550.63 491.97,549.66 C491.94,549.60 491.89,549.56 491.84,549.51 C491.51,549.18 476.49,555.19 472.63,557.20 C471.60,557.73 467.20,559.67 462.86,561.50 C455.67,564.53 446.68,570.21 435.65,578.69 C429.29,583.58 409.74,594.75 403.36,597.14 C398.70,598.88 396.39,599.16 390.55,598.66 C386.63,598.33 381.64,597.42 379.46,596.64 C373.05,594.35 361.54,587.45 345.20,576.12 C320.59,559.04 311.31,553.46 296.97,547.09 C292.04,544.90 288.00,543.37 288.00,543.68 C288.00,544.80 295.42,556.57 298.06,559.66 C300.82,562.86 312.62,573.42 321.25,580.40 C323.86,582.51 326.00,584.72 326.00,585.31 C326.00,585.89 324.76,585.23 323.25,583.83 C321.74,582.43 316.45,578.02 311.50,574.04 C300.35,565.07 293.91,559.09 290.99,554.99 C289.76,553.26 285.88,544.79 282.38,536.17 C277.00,522.94 275.12,519.45 270.26,513.74 C262.92,505.12 255.24,490.59 239.34,455.25 C232.35,439.71 226.26,427.00 225.82,427.00 C223.44,427.00 216.27,436.74 212.95,444.49 C208.72,454.35 208.63,454.48 207.25,452.77 C205.98,451.21 209.50,440.23 213.43,433.53 C216.30,428.63 215.62,427.91 210.59,430.53 C206.73,432.54 205.11,432.56 194.50,430.68 C189.55,429.81 178.30,428.15 169.50,427.01 C160.70,425.86 149.23,424.06 144.00,423.01 C102.89,414.74 77.60,412.98 68.41,417.75 C55.27,424.58 38.84,450.06 22.48,489.00 C17.05,501.94 16.58,504.49 16.76,520.54 C17.08,548.89 22.71,585.85 32.31,622.50 C36.97,640.32 42.73,661.79 43.95,665.93 C44.92,669.20 44.67,671.00 43.42,669.75 C43.10,669.44 41.73,665.00 40.37,659.91 C39.01,654.81 37.51,649.96 37.05,649.12 C35.67,646.66 34.75,659.27 35.22,674.11 C35.73,690.06 36.61,692.48 47.38,707.33 C51.29,712.74 55.13,718.05 55.90,719.13 C56.86,720.46 56.98,721.42 56.29,722.11 C55.59,722.81 55.94,725.19 57.38,729.54 ZM 479.50 236.40 C496.00,237.69 548.86,234.87 572.50,231.44 C591.19,228.73 635.77,215.46 640.48,211.20 C644.75,207.34 644.77,207.31 647.46,198.50 C651.51,185.22 653.00,174.81 653.00,159.85 C653.00,144.93 652.22,139.83 646.38,116.50 C637.62,81.49 632.23,66.65 623.19,52.60 C614.74,39.47 593.34,15.05 581.71,5.27 L 575.50 0.05 L 406.82 0.02 L 238.13 0.00 L 229.40 8.25 C209.72,26.85 193.44,48.31 181.81,71.00 C174.76,84.75 173.28,90.76 172.09,110.50 C170.67,133.89 169.70,179.90 170.53,184.32 C171.14,187.59 171.85,188.26 177.45,190.90 C193.40,198.44 216.25,204.55 237.50,206.96 C273.80,211.07 273.17,210.99 310.50,216.99 C330.18,220.15 337.48,221.20 355.50,223.44 C387.08,227.38 446.20,233.84 461.00,234.98 C468.42,235.55 476.75,236.19 479.50,236.40 ZM 383.39 596.05 C385.10,596.46 389.21,596.84 392.53,596.90 C397.51,596.98 399.86,596.38 406.03,593.43 C413.71,589.75 429.66,580.26 438.50,574.10 C441.25,572.18 445.30,569.37 447.50,567.85 C463.67,556.66 486.31,537.90 499.08,525.10 C517.18,506.95 526.01,493.88 542.06,461.41 C552.47,440.36 552.49,440.22 547.99,423.12 C546.35,416.85 545.00,411.57 545.00,411.37 C545.00,411.16 544.56,411.00 544.02,411.00 C543.48,411.00 542.74,412.24 542.38,413.75 C540.75,420.55 533.41,430.00 529.75,430.00 C528.18,430.00 528.38,429.41 531.07,426.06 C534.04,422.36 534.21,421.71 533.83,415.60 C533.60,412.01 533.16,408.82 532.85,408.51 C531.89,407.56 529.00,409.13 529.00,410.61 C529.00,411.37 528.33,412.00 527.50,412.00 C525.36,412.00 525.61,411.21 528.98,407.38 C531.65,404.33 531.83,403.71 530.77,401.24 C529.30,397.82 524.12,391.00 523.00,391.00 C522.54,391.00 521.88,392.29 521.53,393.86 C521.18,395.44 520.02,397.67 518.95,398.82 C517.88,399.97 517.00,401.35 517.00,401.88 C517.00,402.41 515.09,404.49 512.75,406.51 C501.25,416.42 486.66,418.46 473.87,411.94 C469.21,409.55 460.63,400.94 458.99,396.98 C458.31,395.34 457.30,394.00 456.74,394.00 C456.18,394.00 453.53,395.35 450.85,397.00 C448.16,398.65 445.06,400.00 443.94,400.00 C442.18,400.00 442.39,399.50 445.52,396.27 C449.15,392.54 448.92,390.90 445.06,392.97 C442.89,394.13 442.06,392.70 444.15,391.40 C444.85,390.97 443.37,389.71 440.40,388.21 C435.34,385.64 425.42,378.42 423.08,375.60 C420.46,372.44 420.19,374.12 422.16,381.25 C425.83,394.46 430.46,402.88 439.20,412.25 C441.64,414.86 443.16,417.00 442.57,416.99 C440.49,416.97 431.45,412.22 427.60,409.12 C425.45,407.39 423.48,406.18 423.23,406.44 C422.97,406.69 424.18,409.92 425.91,413.61 C436.80,436.90 456.59,459.51 473.53,468.02 C477.70,470.11 480.74,472.04 480.30,472.32 C479.26,472.96 469.10,471.12 466.77,469.88 C465.80,469.36 465.00,468.34 465.00,467.63 C465.00,466.91 463.99,465.85 462.75,465.27 C458.80,463.43 444.34,449.22 437.48,440.44 C426.75,426.70 418.62,409.52 414.58,392.04 C412.17,381.63 414.39,382.31 417.90,393.07 C419.42,397.74 421.19,400.75 424.00,403.50 C426.18,405.63 428.16,407.17 428.40,406.93 C428.64,406.69 427.12,402.97 425.02,398.67 C420.89,390.21 418.00,380.24 418.00,374.48 C418.00,372.49 417.53,370.00 416.96,368.93 C415.26,365.75 416.79,366.68 424.02,373.23 C431.24,379.77 442.26,387.02 444.93,386.97 C445.97,386.96 445.30,385.83 442.94,383.63 C438.58,379.58 432.47,370.49 428.62,362.32 C425.40,355.51 427.02,356.25 409.50,353.54 C375.25,348.25 316.00,343.98 316.00,346.80 C316.00,347.25 317.35,349.74 319.00,352.34 C320.65,354.94 322.00,357.28 322.00,357.53 C322.00,358.48 334.78,378.84 338.12,383.21 C342.61,389.09 351.00,398.42 351.00,397.53 C351.00,397.15 349.65,393.03 348.01,388.37 C343.78,376.39 341.99,367.92 342.05,360.19 L 342.11 353.50 L 348.01 365.23 C354.90,378.94 364.13,393.93 369.92,400.78 C374.46,406.18 376.95,413.05 377.97,423.00 C378.62,429.42 378.65,429.46 379.95,426.50 C380.67,424.85 381.83,421.02 382.53,418.00 C383.23,414.98 383.84,413.47 383.90,414.66 C383.99,416.66 388.12,420.57 407.91,437.40 C419.37,447.14 444.50,461.35 457.74,465.56 C460.62,466.47 462.75,467.59 462.48,468.04 C460.96,470.50 430.95,457.63 417.46,448.73 C408.78,443.00 391.26,428.25 388.22,424.11 C386.97,422.40 385.60,421.00 385.18,421.00 C384.76,421.00 383.85,423.13 383.15,425.73 C382.24,429.11 380.57,431.71 377.25,434.89 C372.28,439.65 370.77,439.20 373.66,433.82 C375.95,429.55 375.90,419.31 373.55,412.50 C372.44,409.29 369.93,405.53 366.55,402.00 C360.40,395.59 356.54,390.03 351.98,381.00 C347.99,373.11 347.01,374.53 350.08,383.75 C353.62,394.37 359.75,405.64 363.81,408.99 C369.58,413.75 365.24,412.55 356.91,407.08 C347.06,400.61 336.15,389.00 327.50,375.76 C320.50,365.06 317.07,362.10 313.92,364.05 C313.07,364.57 311.96,364.37 311.01,363.51 C310.17,362.75 305.43,361.39 300.49,360.49 C295.54,359.60 290.15,358.45 288.50,357.95 C283.38,356.40 297.45,357.94 308.37,360.12 C313.79,361.21 318.42,361.91 318.65,361.69 C318.88,361.46 318.26,359.86 317.28,358.14 C316.03,355.94 314.16,354.58 311.00,353.55 C303.04,350.98 294.77,349.17 283.30,347.52 C272.61,345.97 271.15,345.99 251.30,347.99 C239.86,349.14 229.71,350.32 228.75,350.61 C226.72,351.22 226.68,352.36 228.39,360.50 L 229.66 366.50 L 257.58 368.15 C272.94,369.05 289.00,370.29 293.29,370.89 C303.71,372.36 315.62,377.20 326.22,384.27 C335.95,390.76 337.86,392.68 333.47,391.58 C330.94,390.95 330.79,391.04 332.00,392.50 C332.75,393.40 334.92,394.94 336.83,395.92 C341.69,398.41 339.35,399.28 334.10,396.93 C328.33,394.35 327.38,394.48 326.15,397.99 C318.46,420.07 286.16,424.66 266.45,406.48 L 261.50 401.92 L 263.99 400.03 C266.97,397.76 266.00,396.22 262.57,397.79 C260.38,398.79 259.95,398.58 258.25,395.70 C255.77,391.49 254.00,386.30 254.00,383.23 C254.00,380.99 253.70,380.81 250.88,381.38 C249.16,381.72 245.56,382.00 242.88,382.00 C239.43,382.00 238.00,382.40 238.00,383.36 C238.00,386.06 244.92,393.38 250.65,396.74 L 256.50 400.16 L 252.50 399.58 C250.30,399.26 247.38,398.69 246.01,398.32 C243.74,397.70 243.90,398.11 247.84,402.81 C255.11,411.49 264.28,418.90 270.45,421.07 C279.78,424.35 289.58,426.00 300.32,426.09 C308.97,426.17 309.97,426.33 307.00,427.21 C301.23,428.90 282.69,427.48 273.32,424.63 C268.83,423.27 264.22,421.65 263.09,421.05 C261.96,420.44 259.00,419.79 256.51,419.61 C252.56,419.31 252.21,419.44 253.74,420.60 C254.71,421.34 255.01,421.95 254.40,421.97 C253.80,421.99 252.50,421.10 251.50,420.00 C249.82,418.15 249.82,418.00 251.40,418.00 C252.35,418.00 252.84,417.55 252.50,417.00 C252.16,416.45 250.59,416.00 249.00,416.00 C247.41,416.00 245.84,415.55 245.50,415.00 C245.14,414.41 246.20,414.00 248.08,414.00 L 251.27 414.00 L 248.73 412.00 C247.33,410.90 244.79,410.00 243.09,410.00 C241.39,410.00 240.00,409.55 240.00,409.00 C240.00,408.45 241.01,407.99 242.25,407.98 C244.32,407.97 244.23,407.73 241.04,404.92 C239.13,403.24 236.23,401.60 234.58,401.27 C232.49,400.85 232.08,400.49 233.19,400.08 C234.42,399.63 233.06,397.67 227.26,391.53 C222.12,386.09 219.97,384.34 220.48,386.03 C220.90,387.39 221.60,388.95 222.03,389.50 C222.45,390.05 224.69,394.09 226.99,398.47 C239.18,421.66 251.91,438.27 260.50,442.18 C262.78,443.22 263.94,445.00 262.33,445.00 C261.11,445.00 244.66,435.82 237.91,431.37 C234.26,428.97 230.96,427.00 230.57,427.00 C229.58,427.00 230.74,430.35 234.53,438.50 C236.33,442.35 239.81,450.23 242.27,456.00 C249.21,472.26 261.35,496.81 266.02,504.00 C271.58,512.58 292.50,533.72 307.50,545.93 C317.48,554.05 330.47,563.79 344.00,573.30 C360.10,584.61 377.44,594.63 383.39,596.05 ZM 469.01 218.25 C464.51,223.06 460.31,226.95 459.67,226.88 C456.63,226.58 455.05,225.72 454.53,224.08 C454.21,223.10 455.56,215.38 457.52,206.92 C461.14,191.27 465.00,169.60 465.00,164.90 L 465.00 162.31 L 442.75 161.70 C419.53,161.06 401.37,159.32 377.75,155.50 C375.95,155.20 375.00,155.49 375.00,156.33 C375.00,157.03 378.67,163.43 383.16,170.55 C396.94,192.41 402.00,201.30 402.00,203.65 C402.00,205.83 401.87,205.86 398.25,204.58 C396.19,203.85 383.48,198.65 370.00,193.03 C320.86,172.52 270.24,150.47 241.50,137.04 C236.55,134.72 228.45,130.97 223.50,128.70 C218.55,126.42 214.17,124.10 213.77,123.53 C212.18,121.31 213.19,120.80 217.75,121.52 C220.36,121.93 223.18,122.24 224.00,122.20 C224.82,122.17 227.30,122.75 229.50,123.50 C232.98,124.69 254.90,130.06 262.00,131.46 C263.38,131.73 270.35,133.30 277.50,134.96 C284.65,136.61 292.30,138.21 294.50,138.52 C296.70,138.82 299.62,139.49 301.00,139.99 C303.75,141.00 331.44,146.86 337.00,147.61 C337.30,147.65 337.58,147.69 337.84,147.73 C338.76,147.87 339.42,147.96 339.50,147.79 C339.70,147.37 336.70,145.41 326.56,138.78 C325.37,138.00 324.07,137.15 322.67,136.23 C308.74,127.13 305.00,124.01 305.00,121.53 C305.00,120.54 316.55,120.38 360.75,120.77 C398.31,121.10 420.90,120.89 430.00,120.11 C445.29,118.81 472.84,114.56 474.10,113.30 C474.55,112.85 476.04,108.65 477.40,103.99 C478.76,99.32 481.53,91.00 483.56,85.50 C485.58,80.00 490.40,66.39 494.25,55.25 C498.36,43.38 501.79,35.00 502.52,35.00 C506.19,35.00 507.93,38.58 510.54,51.50 C513.76,67.48 516.83,80.25 521.86,98.50 L 525.71 112.50 L 560.11 113.05 C584.64,113.44 595.14,113.95 596.75,114.83 C597.99,115.51 599.00,116.28 599.00,116.53 C599.00,117.61 573.40,129.68 559.57,135.13 C539.37,143.08 540.02,142.78 539.37,144.47 C538.76,146.06 541.51,159.55 550.45,199.00 C553.50,212.48 555.79,224.08 555.52,224.78 C554.34,227.92 545.80,220.29 528.94,201.00 C521.46,192.45 515.91,186.32 508.13,178.00 L 503.92 173.50 L 502.21 176.00 C495.18,186.31 475.72,211.06 469.01,218.25 ZM 114.53 329.25 C114.17,331.86 114.09,334.00 114.35,334.00 C114.61,334.00 116.61,330.74 118.80,326.75 C123.82,317.63 134.28,306.00 137.47,306.00 C138.73,306.00 140.20,305.44 140.75,304.75 C142.63,302.39 150.82,275.51 153.47,263.00 C154.93,256.12 157.68,244.06 159.58,236.19 C161.48,228.32 162.77,221.43 162.43,220.88 C162.09,220.34 159.49,222.07 156.66,224.74 C147.92,232.97 138.60,238.56 125.04,243.75 C120.30,245.55 115.60,246.42 108.00,246.88 L 97.50 247.51 L 106.00 251.78 C116.04,256.83 124.27,258.44 135.25,257.52 C139.51,257.16 143.00,257.05 143.00,257.28 C143.00,257.51 140.45,261.93 137.32,267.10 C125.03,287.45 117.39,308.29 114.53,329.25 ZM 228.22 419.72 C233.32,424.23 238.05,427.95 238.72,427.97 C239.39,427.98 237.96,425.17 235.54,421.72 C227.98,410.90 217.00,386.93 217.00,381.24 C217.00,380.47 215.43,377.47 213.50,374.57 C211.57,371.67 210.00,369.07 210.00,368.79 C210.00,368.51 213.22,368.20 217.16,368.10 C221.10,368.00 224.68,367.70 225.12,367.42 C225.56,367.15 225.55,365.93 225.09,364.71 C224.63,363.50 223.93,360.14 223.53,357.25 C222.89,352.58 222.55,352.00 220.42,352.00 C216.02,352.00 187.59,358.13 179.79,360.75 L 172.09 363.35 L 172.68 370.94 C173.22,378.05 171.42,388.84 168.44,396.37 C167.07,399.81 171.99,396.24 179.82,388.11 C186.13,381.55 187.06,380.12 186.59,377.75 C185.59,372.68 188.58,374.74 195.29,383.75 C204.41,395.97 217.29,410.04 228.22,419.72 ZM 631.45 354.83 C629.80,362.12 638.93,345.60 644.34,331.50 C645.82,327.65 647.36,324.02 647.76,323.43 C648.17,322.84 652.78,321.66 658.00,320.80 C663.22,319.93 668.85,318.69 670.50,318.03 L 673.50 316.82 L 667.96 314.00 C664.91,312.45 660.05,309.05 657.16,306.46 C651.31,301.19 642.03,288.82 643.55,288.32 C646.94,287.19 658.15,278.72 665.44,271.77 C670.15,267.29 674.00,263.37 674.00,263.06 C674.00,262.75 671.12,262.44 667.59,262.37 C660.37,262.22 652.50,259.15 645.87,253.90 C643.69,252.17 641.75,250.93 641.56,251.13 C641.36,251.33 640.71,259.83 640.10,270.00 C638.55,295.90 633.44,345.98 631.45,354.83 ZM 373.50 115.88 C369.65,116.49 363.44,116.88 359.70,116.75 C353.75,116.54 352.57,116.17 350.27,113.75 C347.75,111.13 347.73,111.00 349.72,111.00 C351.09,111.00 353.07,109.24 355.47,105.90 C358.84,101.22 359.01,100.67 357.57,99.07 C355.35,96.62 355.60,96.00 358.80,96.00 C362.08,96.00 368.97,89.72 367.02,88.51 C366.39,88.12 364.96,88.63 363.85,89.64 C361.90,91.40 361.76,91.40 360.52,89.69 C359.80,88.71 359.45,87.00 359.74,85.89 C360.18,84.20 360.86,83.95 363.88,84.39 C365.87,84.67 370.65,85.18 374.50,85.53 C384.86,86.45 396.26,88.95 398.25,90.74 C401.02,93.23 400.34,94.65 395.14,97.24 C390.81,99.40 390.42,99.86 391.57,101.43 C392.28,102.40 392.60,103.94 392.28,104.85 C391.88,105.96 392.64,105.65 394.60,103.91 C401.20,98.03 403.90,96.77 410.32,96.63 C415.29,96.53 417.13,96.95 419.69,98.78 C426.00,103.28 424.81,107.03 415.60,111.70 C409.18,114.96 402.39,116.98 397.82,116.99 C395.03,117.00 393.64,116.36 392.07,114.37 C390.93,112.92 390.00,111.12 390.00,110.37 C390.00,108.54 388.55,108.64 386.95,110.57 C384.80,113.15 380.88,114.70 373.50,115.88 ZM 554.76 443.75 C555.04,449.39 555.42,454.00 555.61,454.00 C556.95,454.00 563.54,437.63 565.97,428.25 C567.32,423.06 568.47,422.87 570.03,427.59 C570.68,429.57 571.58,430.81 572.03,430.34 C572.80,429.54 575.26,417.88 574.75,417.46 C571.92,415.17 532.46,395.00 530.81,395.00 C530.24,395.00 530.58,396.24 531.57,397.75 C532.56,399.26 533.90,401.51 534.54,402.73 C535.17,403.96 535.89,404.77 536.13,404.53 C536.37,404.29 536.66,406.18 536.77,408.74 C537.08,415.76 538.54,416.13 541.33,409.90 L 543.75 404.50 L 545.79 409.14 C551.06,421.11 554.25,433.43 554.76,443.75 ZM 260.40 108.03 C258.25,108.52 251.77,109.21 246.00,109.58 C236.37,110.19 235.29,110.07 233.00,108.21 L 230.50 106.17 L 233.00 103.47 C239.64,96.29 262.62,78.24 269.70,74.63 C273.44,72.73 282.06,72.46 283.80,74.20 C287.17,77.57 282.75,83.03 273.49,86.93 C269.69,88.54 266.19,89.62 265.73,89.33 C265.27,89.05 267.50,86.80 270.70,84.35 C276.57,79.83 279.00,77.32 279.00,75.76 C279.00,74.62 272.24,75.90 268.50,77.76 C261.01,81.48 233.68,103.98 235.00,105.33 C235.28,105.61 240.45,104.95 246.49,103.87 C254.30,102.47 258.12,101.29 259.69,99.82 C262.23,97.43 264.68,97.95 265.85,101.12 C266.59,103.12 267.00,102.85 271.08,97.61 C275.55,91.87 279.21,89.81 281.27,91.87 C281.89,92.49 283.58,93.00 285.03,93.00 C287.53,93.00 292.02,96.58 291.99,98.56 C291.95,100.71 285.19,106.88 281.23,108.38 C275.27,110.64 272.64,110.41 268.99,107.34 C266.67,105.38 265.62,105.00 265.06,105.91 C264.64,106.59 262.54,107.54 260.40,108.03 ZM 344.37 111.97 C341.62,115.24 340.11,115.45 330.50,113.95 C327.75,113.53 322.53,113.14 318.90,113.09 C313.76,113.02 311.93,112.58 310.59,111.10 C309.04,109.38 308.59,109.33 306.18,110.59 C302.15,112.69 292.71,112.44 290.65,110.17 C288.24,107.50 288.55,106.27 293.12,100.34 C297.16,95.11 299.09,94.14 301.90,95.91 C303.57,96.97 302.65,100.00 300.65,100.00 C299.39,100.00 294.00,106.02 294.00,107.43 C294.00,108.51 297.21,107.99 300.63,106.37 C304.71,104.44 306.64,101.48 305.08,99.59 C304.49,98.89 304.31,98.02 304.68,97.66 C306.18,96.16 308.99,97.19 311.49,100.17 L 314.16 103.34 L 316.33 100.67 C317.52,99.21 321.42,94.43 325.00,90.05 C331.45,82.15 333.72,80.76 335.88,83.35 C336.75,84.41 335.12,87.16 328.39,95.91 C323.66,102.07 319.97,107.31 320.20,107.53 C320.43,107.76 323.88,108.25 327.86,108.62 C335.02,109.29 335.13,109.26 338.38,106.12 C342.01,102.60 344.09,102.71 345.83,106.52 C346.76,108.57 346.54,109.39 344.37,111.97 ZM 444.06 381.57 C445.89,383.45 447.82,385.00 448.35,385.00 C448.88,385.00 450.77,383.89 452.54,382.53 C455.75,380.09 469.87,374.00 472.33,374.00 C473.04,374.00 474.47,373.37 475.52,372.61 C477.26,371.34 476.70,370.99 469.16,368.61 C460.76,365.96 457.52,365.40 458.33,366.75 C458.58,367.16 456.05,367.60 452.70,367.71 C449.00,367.85 446.33,368.43 445.88,369.21 C445.47,369.92 444.41,371.40 443.51,372.50 C441.92,374.47 441.91,374.46 442.94,372.32 C444.38,369.34 444.30,369.11 442.00,369.71 C440.90,370.00 440.00,369.77 440.00,369.20 C440.00,368.07 448.39,366.00 452.99,366.00 C458.02,366.00 457.14,364.36 451.22,362.67 C439.85,359.45 429.53,357.14 429.02,357.70 C428.73,358.02 429.04,358.47 429.69,358.70 C430.35,358.94 430.66,359.73 430.38,360.46 C430.09,361.20 430.37,362.11 430.99,362.49 C431.60,362.87 433.13,365.51 434.39,368.34 C436.85,373.88 439.29,376.56 440.94,375.53 C441.57,375.15 441.73,375.53 441.36,376.51 C440.96,377.56 441.92,379.35 444.06,381.57 ZM 447.93 116.39 C447.62,116.71 442.22,117.25 435.93,117.59 C427.16,118.07 424.21,117.91 423.25,116.91 C421.19,114.75 421.77,114.22 426.92,113.51 C432.46,112.75 436.56,110.30 434.01,109.27 C433.19,108.94 431.22,107.38 429.64,105.80 C426.87,103.02 426.83,102.85 428.54,100.96 C430.21,99.11 430.21,98.89 428.60,97.12 C426.97,95.31 427.04,95.18 430.10,94.12 C434.57,92.56 438.53,92.73 440.03,94.54 C441.09,95.82 440.87,96.53 438.65,98.84 C434.43,103.25 435.24,103.89 442.46,101.89 C444.89,101.21 447.82,99.26 450.05,96.82 C454.58,91.86 460.39,90.57 463.36,93.84 C465.18,95.85 465.15,95.91 461.74,97.34 C459.83,98.14 457.03,100.41 455.51,102.39 C454.00,104.38 452.40,106.00 451.96,106.00 C451.53,106.00 449.03,106.92 446.41,108.04 L 441.66 110.07 L 445.08 112.94 C446.96,114.52 448.24,116.07 447.93,116.39 ZM 164.00 626.26 C150.39,632.08 150.08,632.15 146.25,630.50 C142.74,628.98 141.76,627.47 144.95,628.48 C146.02,628.82 148.82,628.22 151.20,627.14 C173.10,617.17 212.59,604.81 233.00,601.53 C244.97,599.61 252.04,599.60 259.29,601.49 C267.69,603.68 281.10,609.03 280.52,609.96 C280.25,610.41 277.40,609.72 274.20,608.42 C260.25,602.79 252.09,601.94 236.39,604.49 C217.47,607.55 184.66,617.42 164.00,626.26 ZM 603.00 687.50 C603.00,689.75 599.64,689.31 597.24,686.75 C596.08,685.51 591.21,677.30 586.42,668.50 C572.27,642.55 561.13,627.51 552.18,622.26 C547.85,619.72 546.57,619.50 534.01,619.16 L 520.50 618.79 L 513.00 622.69 C508.88,624.83 494.34,633.26 480.71,641.42 C467.07,649.57 455.70,656.03 455.42,655.76 C454.89,655.22 508.16,621.73 514.27,618.76 C516.36,617.75 521.51,616.67 525.84,616.33 C541.54,615.12 556.16,619.88 564.09,628.79 C570.65,636.14 580.08,651.11 588.50,667.50 C596.90,683.83 598.38,686.00 601.15,686.00 C602.17,686.00 603.00,686.67 603.00,687.50 ZM 474.55 94.46 C473.28,98.84 471.68,102.61 470.98,102.84 C469.34,103.39 470.00,100.62 480.60,62.25 C482.09,56.86 483.72,55.75 486.03,58.54 C487.53,60.34 487.18,61.56 481.00,76.50 C478.72,82.00 475.82,90.08 474.55,94.46 ZM 472.63 552.32 L 469.50 555.14 L 472.50 553.70 C474.15,552.91 478.97,550.60 483.22,548.58 C488.89,545.87 492.23,543.44 495.79,539.44 C500.30,534.38 505.72,525.39 504.81,524.47 C504.59,524.25 501.95,526.47 498.95,529.40 C495.95,532.34 490.58,537.15 487.00,540.10 C479.02,546.69 476.65,548.71 472.63,552.32 ZM 285.91 413.48 C288.98,414.22 292.85,414.85 294.50,414.86 C298.38,414.89 304.56,412.78 304.28,411.52 C304.16,410.99 300.15,409.98 295.36,409.29 C290.57,408.60 284.76,407.31 282.45,406.43 C277.95,404.71 273.89,404.80 273.29,406.63 C272.75,408.27 279.45,411.91 285.91,413.48 ZM 360.00 110.48 C360.00,111.43 369.96,110.47 375.02,109.03 C376.95,108.48 380.10,106.70 382.02,105.06 L 385.50 102.08 L 376.83 102.04 C372.06,102.02 367.49,101.74 366.67,101.43 C365.65,101.04 364.34,102.26 362.59,105.26 C361.16,107.69 360.00,110.04 360.00,110.48 ZM 501.57 421.94 C498.30,422.52 490.88,422.94 485.07,422.87 L 474.50 422.74 L 487.35 421.40 C499.44,420.15 510.68,417.72 517.50,414.90 C521.03,413.44 529.20,412.86 528.42,414.13 C528.12,414.61 526.77,415.00 525.41,415.00 C524.05,415.00 519.46,416.32 515.22,417.94 C510.97,419.55 504.83,421.35 501.57,421.94 ZM 484.69 413.30 C490.38,414.77 500.21,412.45 504.73,408.55 C508.41,405.39 507.25,404.56 501.88,406.51 C499.47,407.39 495.64,408.33 493.36,408.61 C487.29,409.35 483.68,410.46 483.26,411.72 C483.06,412.33 483.70,413.04 484.69,413.30 ZM 370.00 94.68 C370.00,95.80 385.52,94.34 388.00,92.98 L 390.50 91.62 L 387.28 90.94 C385.51,90.57 381.43,89.97 378.21,89.60 C372.60,88.97 372.30,89.05 371.17,91.52 C370.53,92.93 370.00,94.36 370.00,94.68 ZM 200.25 476.50 C195.25,490.14 193.00,495.08 193.00,492.45 C193.00,491.93 195.51,483.96 198.58,474.75 C202.55,462.85 204.61,458.00 205.69,458.00 C206.75,458.00 206.99,458.53 206.49,459.75 C206.08,460.71 203.28,468.25 200.25,476.50 ZM 398.00 110.12 C398.00,110.60 398.46,111.00 399.02,111.00 C400.56,111.00 412.21,105.47 414.50,103.65 C416.39,102.15 416.22,102.06 411.25,102.03 C406.61,102.00 405.55,102.41 402.00,105.62 C399.80,107.61 398.00,109.63 398.00,110.12 ZM 299.50 544.45 C306.81,549.97 309.08,550.52 302.34,545.13 C299.68,543.00 294.00,538.05 289.73,534.13 C285.46,530.21 281.79,527.00 281.57,527.00 C281.36,527.00 281.67,528.59 282.27,530.53 C283.10,533.22 284.56,534.75 288.43,536.98 C291.22,538.59 296.20,541.95 299.50,544.45 ZM 272.00 105.18 C272.00,106.30 272.52,106.23 276.53,104.55 C279.94,103.13 285.00,98.53 285.00,96.85 C285.00,96.38 283.69,96.00 282.08,96.00 C279.89,96.00 278.26,97.04 275.58,100.18 C273.61,102.48 272.00,104.73 272.00,105.18 ZM 469.72 111.75 C467.54,114.58 464.38,112.51 465.50,108.99 C465.94,107.61 467.02,107.00 469.04,107.00 C471.37,107.00 471.82,107.34 471.31,108.75 C470.97,109.71 470.25,111.06 469.72,111.75 ZM 50.00 688.15 C50.00,690.05 47.96,688.81 46.53,686.05 C44.63,682.38 44.60,681.00 46.40,681.00 C47.62,681.00 50.00,685.72 50.00,688.15 ZM 291.00 346.68 C292.92,347.30 295.10,347.63 295.83,347.41 C296.56,347.18 297.91,346.99 298.83,346.97 C300.33,346.94 300.32,346.84 298.74,345.92 C297.77,345.35 294.85,345.04 292.24,345.21 L 287.50 345.54 Z" fill="rgb(2,2,2)"/>
<path d="M 376.98 640.14 C381.20,646.04 384.79,650.53 386.78,652.32 C388.77,654.10 388.99,653.92 400.65,640.76 C407.17,633.40 418.88,619.99 426.68,610.94 C447.69,586.59 450.67,583.45 450.67,585.64 C450.68,586.66 446.14,592.46 440.59,598.52 C435.04,604.58 428.59,611.77 426.25,614.50 C422.26,619.16 420.96,622.00 422.81,622.00 C423.50,622.00 433.42,612.12 455.45,589.47 C446.94,598.39 436.48,609.33 423.64,622.76 L 422.93 623.50 C412.88,634.02 403.77,644.13 397.04,652.25 L 391.57 658.83 L 389.29 656.37 C387.01,653.91 382.04,647.31 376.98,640.14 ZM 288.99 348.39 C270.37,345.78 250.89,348.35 233.73,355.78 C228.75,357.94 228.04,358.57 228.60,360.39 C228.96,361.55 229.37,362.64 229.53,362.82 C229.68,362.99 236.03,363.53 243.65,364.01 C251.27,364.50 264.01,365.40 271.96,366.03 C289.38,367.41 298.93,369.04 285.00,368.25 C279.77,367.96 275.74,367.98 276.02,368.30 C276.31,368.62 282.00,369.56 288.67,370.38 C288.80,370.40 288.94,370.41 289.08,370.43 C282.20,369.78 269.67,368.86 257.58,368.15 L 229.66 366.50 L 228.39 360.50 C226.68,352.36 226.72,351.22 228.75,350.61 C229.71,350.32 239.86,349.14 251.30,347.99 C271.15,345.99 272.61,345.97 283.30,347.52 C285.29,347.80 287.18,348.09 288.99,348.39 ZM 321.31 560.10 C315.62,556.57 310.43,553.63 307.83,552.56 L 304.16 551.04 L 306.65 555.27 C308.01,557.60 310.67,561.97 312.56,565.00 C317.51,572.94 316.73,574.37 310.91,568.00 C308.14,564.97 306.40,563.57 307.05,564.88 C307.69,566.19 312.22,571.27 317.11,576.16 C318.66,577.72 320.13,579.21 321.41,580.53 C321.36,580.49 321.30,580.44 321.25,580.40 C312.62,573.42 300.82,562.86 298.06,559.66 C295.42,556.57 288.00,544.80 288.00,543.68 C288.00,543.37 292.04,544.90 296.97,547.09 C305.45,550.86 312.16,554.35 321.31,560.10 ZM 399.28 608.62 C397.51,609.38 394.59,609.96 392.78,609.90 C389.03,609.79 381.07,607.47 379.68,606.08 C379.17,605.57 380.49,605.77 382.62,606.53 C384.76,607.29 387.29,607.93 388.25,607.96 C390.26,608.01 390.61,606.41 388.75,605.66 C388.06,605.38 388.85,605.12 390.51,605.08 C396.59,604.92 423.87,589.76 440.00,577.57 C448.25,571.33 449.12,571.21 442.93,577.15 C439.87,580.09 434.32,584.53 430.61,587.00 C426.90,589.47 419.06,595.04 413.18,599.37 C407.31,603.70 401.05,607.86 399.28,608.62 ZM 468.21 576.09 C471.10,572.87 473.00,570.51 473.00,570.07 C473.00,569.33 473.95,567.20 475.11,565.32 C478.06,560.56 476.99,560.27 473.44,564.86 C468.83,570.82 456.70,584.03 456.24,583.57 C455.73,583.06 461.11,574.71 467.87,565.52 C470.69,561.68 473.00,558.24 473.00,557.86 C473.00,557.50 469.62,558.70 465.80,560.25 C469.03,558.86 471.83,557.61 472.63,557.20 C476.49,555.19 491.51,549.18 491.84,549.51 C491.89,549.56 491.94,549.60 491.97,549.66 C492.40,550.33 490.93,552.22 468.21,576.09 ZM 472.63 552.32 C476.65,548.71 479.02,546.69 487.00,540.10 C490.58,537.15 495.95,532.34 498.95,529.40 C501.95,526.47 504.59,524.25 504.81,524.47 C505.72,525.39 500.30,534.38 495.79,539.44 C492.23,543.44 488.89,545.87 483.22,548.58 C478.97,550.60 474.15,552.91 472.50,553.70 L 469.50 555.14 ZM 444.06 381.57 C441.92,379.35 440.96,377.56 441.36,376.51 C441.73,375.53 441.57,375.15 440.94,375.53 C439.29,376.56 436.85,373.88 434.39,368.34 C433.13,365.51 431.60,362.87 430.99,362.49 C430.37,362.11 430.09,361.20 430.38,360.46 C430.66,359.73 430.35,358.94 429.69,358.70 C429.04,358.47 428.73,358.02 429.02,357.70 C429.53,357.14 439.85,359.45 451.22,362.67 C451.96,362.89 452.63,363.10 453.21,363.30 C450.84,362.66 447.63,362.16 445.22,362.24 C442.62,362.33 438.34,362.05 435.69,361.63 L 430.89 360.86 L 433.02 365.03 C434.89,368.71 435.46,369.14 437.82,368.62 C438.72,368.43 440.70,368.06 442.98,367.66 C441.22,368.20 440.00,368.77 440.00,369.20 C440.00,369.77 440.90,370.00 442.00,369.71 C444.30,369.11 444.38,369.34 442.94,372.32 C441.91,374.46 441.92,374.47 443.51,372.50 C444.41,371.40 445.47,369.92 445.88,369.21 C446.33,368.43 449.00,367.85 452.70,367.71 C456.05,367.60 458.58,367.16 458.33,366.75 C457.77,365.81 459.16,365.79 462.88,366.76 L 453.57 370.97 C441.23,376.54 440.76,377.13 445.04,381.54 C446.65,383.20 448.16,384.59 448.68,384.93 C448.55,384.97 448.43,385.00 448.35,385.00 C447.82,385.00 445.89,383.45 444.06,381.57 ZM 285.91 413.48 C279.45,411.91 272.75,408.27 273.29,406.63 C273.89,404.80 277.95,404.71 282.45,406.43 C284.76,407.31 290.57,408.60 295.36,409.29 C300.15,409.98 304.16,410.99 304.28,411.52 C304.56,412.78 298.38,414.89 294.50,414.86 C292.85,414.85 288.98,414.22 285.91,413.48 ZM 533.83 415.60 C534.21,421.71 534.04,422.36 531.07,426.06 C533.94,422.49 534.15,421.73 533.54,417.29 L 532.87 412.43 L 529.12 415.97 C524.60,420.23 518.99,422.14 514.64,420.90 C512.57,420.30 508.94,420.50 503.66,421.50 C503.59,421.52 503.51,421.53 503.43,421.55 C506.84,420.75 511.69,419.28 515.22,417.94 C519.46,416.32 524.05,415.00 525.41,415.00 C526.77,415.00 528.12,414.61 528.42,414.13 C529.20,412.86 521.03,413.44 517.50,414.90 C516.50,415.31 515.40,415.72 514.23,416.11 C519.55,413.99 523.94,411.07 528.17,407.15 C531.51,404.06 531.74,403.51 530.72,401.12 C530.69,401.08 530.67,401.03 530.65,400.98 C530.69,401.07 530.73,401.16 530.77,401.24 C531.83,403.71 531.65,404.33 528.98,407.38 C525.61,411.21 525.36,412.00 527.50,412.00 C528.33,412.00 529.00,411.37 529.00,410.61 C529.00,409.13 531.89,407.56 532.85,408.51 C533.16,408.82 533.60,412.01 533.83,415.60 ZM 484.69 413.30 C483.70,413.04 483.06,412.33 483.26,411.72 C483.68,410.46 487.29,409.35 493.36,408.61 C495.64,408.33 499.47,407.39 501.88,406.51 C507.25,404.56 508.41,405.39 504.73,408.55 C500.21,412.45 490.38,414.77 484.69,413.30 ZM 327.90 376.37 C322.69,368.86 321.00,367.07 321.00,368.88 C321.00,369.43 321.45,370.16 322.00,370.50 C323.27,371.29 323.30,373.00 322.05,373.00 C321.52,373.00 318.26,371.03 314.80,368.61 C308.00,363.87 304.33,361.67 300.60,360.51 C305.50,361.41 310.17,362.75 311.01,363.51 C311.96,364.37 313.07,364.57 313.92,364.05 C317.07,362.10 320.50,365.06 327.50,375.76 C327.63,375.97 327.77,376.17 327.90,376.37 ZM 299.50 544.45 C296.20,541.95 291.22,538.59 288.43,536.98 C284.56,534.75 283.10,533.22 282.27,530.53 C281.67,528.59 281.36,527.00 281.57,527.00 C281.79,527.00 285.46,530.21 289.73,534.13 C294.00,538.05 299.68,543.00 302.34,545.13 C309.08,550.52 306.81,549.97 299.50,544.45 ZM 271.87 424.19 C268.61,423.34 265.05,422.66 263.08,422.54 L 258.50 422.27 L 261.75 423.64 C265.30,425.13 265.58,425.52 263.85,426.60 C263.12,427.05 262.96,426.87 263.43,426.11 C263.96,425.26 263.47,425.10 261.69,425.54 C257.82,426.51 249.00,421.09 249.00,417.75 C249.00,417.03 248.30,416.24 247.37,415.85 C247.87,415.94 248.44,416.00 249.00,416.00 C250.59,416.00 252.16,416.45 252.50,417.00 C252.84,417.55 252.35,418.00 251.40,418.00 C249.82,418.00 249.82,418.15 251.50,420.00 C252.50,421.10 253.80,421.99 254.40,421.97 C255.01,421.95 254.71,421.34 253.74,420.60 C252.21,419.44 252.56,419.31 256.51,419.61 C259.00,419.79 261.96,420.44 263.09,421.05 C264.10,421.59 267.87,422.93 271.87,424.19 ZM 300.32 426.09 C293.68,426.03 287.40,425.38 281.36,424.11 C285.21,424.47 290.94,424.49 302.18,424.50 C314.65,424.50 324.33,424.78 323.68,425.13 C322.24,425.89 314.61,426.76 306.69,427.29 C306.80,427.26 306.90,427.23 307.00,427.21 C309.97,426.33 308.97,426.17 300.32,426.09 ZM 269.64 133.16 C265.82,132.29 262.85,131.62 262.00,131.46 C254.90,130.06 232.98,124.69 229.50,123.50 C227.47,122.81 225.22,122.26 224.23,122.21 C224.26,122.21 224.30,122.20 224.33,122.20 C225.34,122.15 227.36,122.59 228.83,123.18 C230.30,123.77 238.48,125.94 247.00,128.00 C261.52,131.51 266.76,132.09 262.38,129.70 C259.07,127.89 257.73,124.59 260.55,125.18 C261.41,125.35 262.04,125.90 261.97,126.39 C261.78,127.57 264.08,128.97 266.25,128.98 C267.34,128.99 268.00,128.24 268.00,127.00 C268.00,124.58 268.63,124.49 270.76,126.62 C272.26,128.12 272.24,128.35 270.50,129.62 C269.47,130.38 267.71,131.00 266.61,131.00 C263.48,131.00 264.83,131.84 269.64,133.16 ZM 240.55 408.34 C240.92,408.11 241.49,407.94 242.25,407.92 C243.89,407.86 243.20,407.24 239.70,405.64 C237.05,404.43 235.16,403.18 235.48,402.85 C235.80,402.53 234.70,401.99 233.03,401.66 C229.82,401.01 228.95,399.37 231.54,398.82 C232.62,398.60 231.37,396.82 227.49,393.00 L 221.88 387.50 L 223.92 392.29 C224.31,393.20 224.79,394.23 225.34,395.36 C223.70,392.32 222.35,389.92 222.03,389.50 C221.60,388.95 220.90,387.39 220.48,386.03 C219.97,384.34 222.12,386.09 227.26,391.53 C233.06,397.67 234.42,399.63 233.19,400.08 C232.08,400.49 232.49,400.85 234.58,401.27 C236.23,401.60 239.13,403.24 241.04,404.92 C244.23,407.73 244.32,407.97 242.25,407.98 C241.57,407.99 240.96,408.13 240.55,408.34 ZM 289.90 129.25 C289.48,134.58 287.00,136.38 287.00,131.36 C287.00,129.33 286.64,129.12 284.00,129.65 C280.31,130.39 279.85,128.33 283.50,127.41 C285.06,127.02 286.00,126.08 286.00,124.89 C286.00,123.85 286.50,123.00 287.12,123.00 C287.77,123.00 288.03,124.04 287.76,125.50 C287.43,127.18 287.73,128.00 288.64,128.00 C289.39,128.00 289.96,128.56 289.90,129.25 ZM 282.50 411.93 C285.02,413.19 288.35,413.90 291.50,413.85 C294.25,413.80 295.71,413.56 294.74,413.31 C293.77,413.06 293.23,412.43 293.55,411.92 C293.86,411.42 293.98,410.99 293.81,410.97 C293.64,410.95 290.12,410.71 286.00,410.43 L 278.50 409.92 ZM 497.43 420.06 C494.19,420.59 490.80,421.04 487.35,421.40 L 474.50 422.74 L 485.07 422.87 C485.15,422.87 485.23,422.87 485.31,422.87 C474.43,423.21 463.15,423.05 462.62,422.19 C462.35,421.75 469.18,421.29 477.81,421.17 C485.43,421.07 491.87,420.72 497.43,420.06 ZM 274.00 355.12 C274.00,355.96 268.62,356.23 266.50,355.50 C265.95,355.31 262.87,354.86 259.67,354.49 C256.46,354.13 254.06,353.60 254.35,353.32 C255.21,352.45 274.00,354.18 274.00,355.12 ZM 402.78 597.35 C395.81,600.30 390.87,601.40 388.94,600.19 C387.89,599.54 386.11,599.00 384.99,599.00 C383.37,599.00 379.10,597.07 373.30,593.86 C375.71,595.11 377.76,596.04 379.46,596.64 C381.64,597.42 386.63,598.33 390.55,598.66 C396.13,599.14 398.50,598.90 402.78,597.35 ZM 455.01 565.45 C454.52,566.02 454.36,566.78 454.67,567.27 C455.02,567.84 454.86,568.03 454.32,567.70 C452.92,566.83 448.83,569.91 449.64,571.22 C450.04,571.87 449.84,572.02 449.16,571.60 C448.51,571.20 443.08,574.13 436.76,578.29 C428.59,583.65 420.91,588.24 414.16,591.84 C422.12,587.51 431.58,581.82 435.65,578.69 C442.98,573.05 449.41,568.65 455.01,565.45 ZM 382.53 418.00 C382.28,419.07 381.98,420.24 381.66,421.37 C382.12,419.51 382.50,417.48 382.68,415.79 C383.36,409.25 384.72,408.13 385.19,413.71 C385.47,417.04 386.73,418.53 397.50,428.29 C403.84,434.04 413.38,441.67 419.18,445.66 C414.80,442.77 410.89,439.94 407.91,437.40 C388.12,420.57 383.99,416.66 383.90,414.66 C383.84,413.47 383.23,414.98 382.53,418.00 ZM 314.19 143.10 C307.72,141.70 302.16,140.42 301.00,139.99 C299.62,139.49 296.70,138.82 294.50,138.52 C293.79,138.42 292.50,138.18 290.84,137.86 C293.26,138.30 294.08,138.30 294.29,137.95 C294.41,137.75 294.34,137.46 294.26,137.06 C294.24,136.94 294.21,136.80 294.18,136.66 C293.91,135.06 294.32,134.91 297.18,135.52 C301.29,136.40 301.83,136.87 300.02,137.99 C298.90,138.68 299.12,139.08 301.05,139.90 C302.11,140.35 307.67,141.67 314.19,143.10 ZM 185.52 516.31 C184.11,519.68 183.00,521.01 183.00,519.34 C183.00,517.28 186.51,508.00 187.29,508.00 C188.36,508.00 187.71,511.05 185.52,516.31 ZM 291.00 346.68 L 287.50 345.54 L 292.24 345.21 C294.85,345.04 297.77,345.35 298.74,345.92 C300.32,346.84 300.33,346.94 298.83,346.97 C297.91,346.99 296.56,347.18 295.83,347.41 C295.10,347.63 292.92,347.30 291.00,346.68 ZM 245.43 414.73 C245.33,414.51 245.33,414.28 245.46,414.07 C245.82,413.48 245.64,413.00 245.06,413.00 C244.48,413.00 244.00,412.33 244.00,411.50 C244.00,410.67 243.11,410.00 242.00,410.00 C240.79,410.00 240.15,409.62 240.05,409.19 C240.32,409.65 241.59,410.00 243.09,410.00 C244.79,410.00 247.33,410.90 248.73,412.00 L 251.27 414.00 L 248.08 414.00 C246.51,414.00 245.51,414.29 245.43,414.73 ZM 278.00 128.00 C278.00,128.55 276.85,129.00 275.44,129.00 C273.99,129.00 273.15,128.57 273.50,128.00 C273.84,127.45 274.99,127.00 276.06,127.00 C277.13,127.00 278.00,127.45 278.00,128.00 ZM 444.50 399.93 C441.51,400.97 439.00,401.38 439.00,400.56 C439.00,400.19 440.28,399.45 441.84,398.90 C442.64,398.63 443.61,398.03 444.54,397.30 C442.37,399.61 442.38,400.00 443.94,400.00 C444.09,400.00 444.28,399.97 444.50,399.93 ZM 535.84 404.51 C536.01,404.39 536.21,404.24 536.45,404.04 C537.25,403.38 538.71,403.03 539.70,403.26 C541.17,403.61 541.01,403.89 538.81,404.80 C537.54,405.32 536.88,405.70 536.61,406.42 C536.47,405.15 536.29,404.38 536.13,404.53 C536.07,404.60 535.96,404.59 535.84,404.51 ZM 437.98 372.95 C438.58,374.08 439.50,375.00 440.04,375.00 C441.67,375.00 441.10,373.55 438.94,372.19 C437.04,371.01 436.96,371.06 437.98,372.95 ZM 331.00 627.00 C331.00,627.55 330.35,628.00 329.56,628.00 C328.77,628.00 327.84,627.55 327.50,627.00 C327.16,626.45 327.81,626.00 328.94,626.00 C330.07,626.00 331.00,626.45 331.00,627.00 ZM 296.50 616.00 C296.84,616.55 296.42,617.00 295.56,617.00 C294.70,617.00 294.00,616.55 294.00,616.00 C294.00,615.45 294.42,615.00 294.94,615.00 C295.46,615.00 296.16,615.45 296.50,616.00 ZM 323.27 583.85 C320.97,582.05 316.94,578.74 310.18,573.12 C306.70,570.23 303.73,567.68 301.21,565.44 C304.06,567.95 307.47,570.80 311.50,574.04 C316.45,578.02 321.74,582.43 323.25,583.83 ZM 447.00 588.62 C447.00,589.45 447.82,588.92 449.13,587.25 C450.37,585.66 450.34,585.63 448.75,586.87 C447.79,587.63 447.00,588.41 447.00,588.62 ZM 355.45 583.07 C349.16,579.01 342.46,574.48 336.00,569.84 C335.44,569.44 334.86,569.03 334.27,568.61 C337.56,570.84 341.17,573.33 345.20,576.12 C348.86,578.66 352.28,580.98 355.45,583.07 ZM 260.50 442.18 C256.98,440.58 252.76,436.84 248.17,431.39 C252.64,436.37 257.76,440.93 260.50,442.18 ZM 293.83 427.78 C292.36,427.77 291.06,427.74 290.01,427.66 C285.84,427.37 279.97,426.39 276.05,425.37 C281.15,426.58 287.83,427.44 293.83,427.78 ZM 551.10 404.74 C541.01,399.64 531.42,395.03 530.85,395.22 C530.47,395.34 530.85,396.47 531.69,397.93 C531.65,397.87 531.61,397.81 531.57,397.75 C530.58,396.24 530.24,395.00 530.81,395.00 C531.60,395.00 541.12,399.65 551.10,404.74 ZM 294.56 359.35 C291.57,358.93 288.51,358.29 287.50,357.84 C284.41,356.48 297.08,357.86 308.37,360.12 C297.45,357.94 283.38,356.40 288.50,357.95 C289.48,358.25 291.80,358.78 294.56,359.35 ZM 306.13 374.13 C312.97,376.40 319.27,379.63 326.22,384.27 C319.80,379.99 312.89,376.52 306.13,374.13 ZM 456.27 365.15 C456.31,365.67 455.24,366.00 452.99,366.00 C452.85,366.00 452.71,366.00 452.57,366.01 C454.27,365.68 455.56,365.41 456.00,365.27 C456.11,365.23 456.20,365.19 456.27,365.15 ZM 433.44 454.27 C442.45,459.22 452.02,463.74 457.74,465.56 C451.42,463.55 442.40,459.26 433.44,454.27 ZM 363.97 411.20 C362.67,410.61 360.86,409.63 358.64,408.28 C354.99,406.06 350.95,402.87 346.92,399.11 C350.28,402.24 353.66,404.94 356.91,407.08 C359.85,409.01 362.30,410.41 363.97,411.20 ZM 316.79 357.36 C315.60,355.79 313.54,354.49 309.97,353.22 C310.31,353.33 310.66,353.44 311.00,353.55 C313.77,354.45 315.55,355.61 316.79,357.36 ZM 343.57 395.85 C338.88,391.09 334.33,385.68 330.55,380.23 C334.62,385.94 339.05,391.25 343.57,395.85 ZM 536.98 411.40 C537.43,413.61 537.96,414.53 538.70,414.15 C537.85,414.70 537.29,413.79 536.98,411.40 ZM 262.50 416.62 C264.80,418.24 267.09,419.58 269.36,420.64 C267.29,419.77 264.95,418.38 262.50,416.62 ZM 532.51 399.23 C533.40,400.55 534.19,401.92 534.63,402.90 C534.60,402.85 534.57,402.79 534.54,402.73 C534.09,401.87 533.29,400.50 532.51,399.23 ZM 364.05 621.96 C360.36,617.50 355.61,612.45 349.31,606.25 C355.71,612.55 360.37,617.50 364.05,621.96 ZM 379.25 428.00 L 380.34 425.52 C380.20,425.89 380.07,426.23 379.95,426.50 C379.66,427.16 379.43,427.67 379.25,428.00 ZM 445.06 392.97 C445.54,392.71 445.97,392.51 446.34,392.36 C445.94,392.53 445.47,392.75 444.93,393.04 C443.75,393.67 443.01,393.47 442.95,392.94 C443.03,393.45 443.83,393.63 445.06,392.97 ZM 325.94 585.47 C325.98,585.53 326.00,585.56 326.00,585.58 C326.00,585.71 325.84,585.68 325.42,585.42 C325.68,585.53 325.86,585.55 325.94,585.47 ZM 526.51 394.52 C524.98,392.55 523.52,391.00 523.00,391.00 C523.53,391.00 524.98,392.54 526.51,394.52 ZM 223.88 122.21 C223.56,122.21 223.02,122.17 222.36,122.11 C222.96,122.16 223.49,122.20 223.88,122.21 Z" fill="rgb(100,100,100)"/>
<path d="M 288.99 348.39 C297.18,349.75 303.71,351.26 309.97,353.22 C313.54,354.49 315.60,355.79 316.79,357.36 C316.96,357.61 317.13,357.87 317.28,358.14 C318.26,359.86 318.88,361.46 318.65,361.69 C318.42,361.91 313.79,361.21 308.37,360.12 C297.08,357.86 284.41,356.48 287.50,357.84 C288.51,358.29 291.57,358.93 294.56,359.35 C296.43,359.73 298.50,360.13 300.49,360.49 L 300.60 360.51 C304.33,361.67 308.00,363.87 314.80,368.61 C318.26,371.03 321.52,373.00 322.05,373.00 C323.30,373.00 323.27,371.29 322.00,370.50 C321.45,370.16 321.00,369.43 321.00,368.88 C321.00,367.07 322.69,368.86 327.90,376.37 C328.76,377.68 329.65,378.97 330.55,380.23 C334.33,385.68 338.88,391.09 343.57,395.84 L 343.57 395.85 C344.68,396.98 345.80,398.07 346.92,399.11 C350.95,402.87 354.99,406.06 358.64,408.28 C360.86,409.63 362.67,410.61 363.97,411.20 C367.04,412.65 367.54,412.07 363.81,408.99 C359.75,405.64 353.62,394.37 350.08,383.75 C347.01,374.53 347.99,373.11 351.98,381.00 C356.54,390.03 360.40,395.59 366.55,402.00 C369.93,405.53 372.44,409.29 373.55,412.50 C375.90,419.31 375.95,429.55 373.66,433.82 C370.77,439.20 372.28,439.65 377.25,434.89 C380.57,431.71 382.24,429.11 383.15,425.73 C383.85,423.13 384.76,421.00 385.18,421.00 C385.60,421.00 386.97,422.40 388.22,424.11 C391.26,428.25 408.78,443.00 417.46,448.73 C430.74,457.49 459.99,470.09 462.38,468.15 C462.23,468.54 460.94,468.55 458.40,467.84 C456.43,467.30 454.61,467.06 454.36,467.30 C453.49,468.18 466.00,478.66 471.98,482.05 C479.21,486.16 482.20,488.21 480.00,487.56 C479.17,487.32 474.45,486.39 469.50,485.49 C464.55,484.58 456.70,482.68 452.06,481.25 C434.06,475.70 407.10,459.50 389.59,443.72 L 386.50 440.94 L 386.19 447.22 C386.02,450.67 386.39,461.83 387.02,472.00 C389.02,504.32 389.12,507.47 388.17,508.86 C386.56,511.22 383.51,509.24 374.69,500.08 C364.87,489.90 364.06,487.58 365.79,474.63 C366.59,468.67 367.59,465.89 370.65,461.06 C377.67,449.99 378.98,447.54 380.65,442.33 C382.14,437.71 382.15,437.01 380.79,435.65 C379.43,434.29 378.90,434.39 375.69,436.57 C373.72,437.90 371.57,439.00 370.91,439.00 C370.25,439.00 367.72,440.63 365.30,442.61 C362.87,444.60 360.67,446.00 360.40,445.73 C360.12,445.46 361.06,443.53 362.48,441.44 C365.48,437.01 366.63,433.23 365.35,431.95 C364.85,431.45 360.87,430.31 356.50,429.40 C347.71,427.59 335.07,427.74 302.53,430.07 C278.91,431.77 251.45,429.66 245.25,425.68 C244.54,425.23 244.00,425.33 244.00,425.90 C244.00,425.98 244.02,426.08 244.06,426.19 C238.58,418.83 232.73,409.38 226.99,398.47 C226.43,397.39 225.87,396.34 225.34,395.36 C224.79,394.23 224.31,393.20 223.92,392.29 L 221.88 387.50 L 227.49 393.00 C231.37,396.82 232.62,398.60 231.54,398.82 C228.95,399.37 229.82,401.01 233.03,401.66 C234.70,401.99 235.80,402.53 235.48,402.85 C235.16,403.18 237.05,404.43 239.70,405.64 C243.20,407.24 243.89,407.86 242.25,407.92 C241.49,407.94 240.92,408.11 240.55,408.34 C240.21,408.52 240.00,408.75 240.00,409.00 C240.00,409.06 240.02,409.13 240.05,409.19 C240.15,409.62 240.79,410.00 242.00,410.00 C243.11,410.00 244.00,410.67 244.00,411.50 C244.00,412.33 244.48,413.00 245.06,413.00 C245.64,413.00 245.82,413.48 245.46,414.07 C245.33,414.28 245.33,414.51 245.43,414.73 C245.42,414.81 245.44,414.90 245.50,415.00 C245.72,415.35 246.45,415.67 247.37,415.85 C248.30,416.24 249.00,417.03 249.00,417.75 C249.00,421.09 257.82,426.51 261.69,425.54 C263.47,425.10 263.96,425.26 263.43,426.11 C262.96,426.87 263.12,427.05 263.85,426.60 C265.58,425.52 265.30,425.13 261.75,423.64 L 258.50 422.27 L 263.08 422.54 C265.05,422.66 268.61,423.34 271.87,424.19 C272.35,424.34 272.84,424.49 273.32,424.63 C274.16,424.89 275.08,425.13 276.05,425.37 C279.97,426.39 285.84,427.37 290.01,427.66 C291.06,427.74 292.36,427.77 293.83,427.78 C299.23,428.08 304.07,427.96 306.69,427.29 C314.61,426.76 322.24,425.89 323.68,425.13 C324.33,424.78 314.65,424.50 302.18,424.50 C290.94,424.49 285.21,424.47 281.36,424.11 C277.64,423.33 274.01,422.32 270.45,421.07 C270.09,420.94 269.73,420.80 269.36,420.64 C267.09,419.58 264.80,418.24 262.50,416.62 C257.67,413.16 252.38,408.23 247.84,402.81 C243.90,398.11 243.74,397.70 246.01,398.32 C247.38,398.69 250.30,399.26 252.50,399.58 L 256.50 400.16 L 250.65 396.74 C244.92,393.38 238.00,386.06 238.00,383.36 C238.00,382.40 239.43,382.00 242.88,382.00 C245.56,382.00 249.16,381.72 250.88,381.38 C253.70,380.81 254.00,380.99 254.00,383.23 C254.00,386.30 255.77,391.49 258.25,395.70 C259.95,398.58 260.38,398.79 262.57,397.79 C266.00,396.22 266.97,397.76 263.99,400.03 L 261.50 401.92 L 266.45 406.48 C286.16,424.66 318.46,420.07 326.15,397.99 C327.38,394.48 328.33,394.35 334.10,396.93 C339.35,399.28 341.69,398.41 336.83,395.92 C334.92,394.94 332.75,393.40 332.00,392.50 C330.79,391.04 330.94,390.95 333.47,391.58 C337.86,392.68 335.95,390.76 326.22,384.27 C319.80,379.99 312.89,376.52 306.13,374.13 C301.73,372.57 297.40,371.47 293.29,370.89 C292.38,370.76 290.93,370.61 289.08,370.43 C288.94,370.41 288.80,370.40 288.67,370.38 C282.00,369.56 276.31,368.62 276.02,368.30 C275.74,367.98 279.77,367.96 285.00,368.25 C298.93,369.04 289.38,367.41 271.96,366.03 C264.01,365.40 251.27,364.50 243.65,364.01 C236.03,363.53 229.68,362.99 229.53,362.82 C229.37,362.64 228.96,361.55 228.60,360.39 C228.04,358.57 228.75,357.94 233.73,355.78 C250.89,348.35 270.37,345.78 288.99,348.39 ZM 321.31 560.10 C325.11,562.49 329.33,565.26 334.27,568.61 C334.86,569.03 335.44,569.44 336.00,569.84 C342.46,574.48 349.15,579.01 355.45,583.07 L 355.45 583.07 C362.69,587.84 368.65,591.44 373.30,593.86 C379.10,597.07 383.37,599.00 384.99,599.00 C386.11,599.00 387.89,599.54 388.94,600.19 C390.87,601.40 395.81,600.30 402.78,597.35 C402.97,597.28 403.16,597.21 403.36,597.14 C405.66,596.28 409.67,594.27 414.16,591.84 C420.91,588.24 428.59,583.65 436.76,578.29 C443.08,574.13 448.51,571.20 449.16,571.60 C449.84,572.02 450.04,571.87 449.64,571.22 C448.83,569.91 452.92,566.83 454.32,567.70 C454.86,568.03 455.02,567.84 454.67,567.27 C454.36,566.78 454.52,566.02 455.01,565.45 C457.84,563.83 460.45,562.52 462.86,561.50 C463.85,561.08 464.85,560.66 465.80,560.25 C469.62,558.70 473.00,557.50 473.00,557.86 C473.00,558.24 470.69,561.68 467.87,565.52 C461.11,574.71 455.73,583.06 456.24,583.57 C456.70,584.03 468.83,570.82 473.44,564.86 C476.99,560.27 478.06,560.56 475.11,565.32 C473.95,567.20 473.00,569.33 473.00,570.07 C473.00,570.51 471.10,572.87 468.21,576.09 C464.54,579.94 460.31,584.38 455.45,589.47 C433.42,612.12 423.50,622.00 422.81,622.00 C420.96,622.00 422.26,619.16 426.25,614.50 C428.59,611.77 435.04,604.58 440.59,598.52 C446.14,592.46 450.68,586.66 450.67,585.64 C450.67,583.45 447.69,586.59 426.68,610.94 C418.88,619.99 407.17,633.40 400.65,640.76 C388.99,653.92 388.77,654.10 386.78,652.32 C384.79,650.53 381.20,646.04 376.98,640.15 L 376.98 640.14 C374.48,636.60 371.96,632.93 369.73,629.55 C368.15,627.15 366.30,624.66 364.05,621.96 C360.37,617.50 355.71,612.55 349.31,606.25 C341.35,598.41 334.51,592.00 334.10,592.00 C333.69,592.00 339.47,598.19 346.94,605.75 C351.34,610.20 354.94,614.06 358.08,617.71 C354.61,613.75 350.32,609.28 344.54,603.50 C337.44,596.42 329.81,589.20 325.57,585.51 C325.87,585.69 326.00,585.70 326.00,585.58 C326.00,585.56 325.98,585.53 325.94,585.47 C325.98,585.43 326.00,585.38 326.00,585.31 C326.00,584.73 323.95,582.60 321.41,580.53 C320.13,579.21 318.66,577.72 317.11,576.16 C312.22,571.27 307.69,566.19 307.05,564.88 C306.40,563.57 308.14,564.97 310.91,568.00 C316.73,574.37 317.51,572.94 312.56,565.00 C310.67,561.97 308.01,557.60 306.65,555.27 L 304.16 551.04 L 307.83 552.56 C310.43,553.63 315.62,556.57 321.31,560.10 ZM 501.57 421.94 C502.12,421.84 502.75,421.71 503.43,421.55 C503.51,421.53 503.59,421.52 503.66,421.50 C508.94,420.50 512.57,420.30 514.64,420.90 C518.99,422.14 524.60,420.23 529.12,415.97 L 532.87 412.43 L 533.54 417.29 C534.15,421.73 533.94,422.49 531.07,426.06 L 531.06 426.08 C528.38,429.41 528.18,430.00 529.75,430.00 C533.41,430.00 540.75,420.55 542.38,413.75 C542.74,412.24 543.48,411.00 544.02,411.00 C544.56,411.00 545.00,411.16 545.00,411.37 C545.00,411.57 546.35,416.85 547.99,423.12 C552.49,440.22 552.47,440.36 542.06,461.41 C540.95,463.66 539.88,465.80 538.83,467.87 C540.36,464.51 540.39,463.21 539.83,461.18 C538.76,457.35 527.68,446.04 521.51,442.50 C510.63,436.25 471.20,426.14 454.25,425.25 L 444.00 424.71 L 444.00 427.47 C444.00,430.33 448.62,435.43 454.25,438.79 C461.50,443.12 452.44,441.28 443.03,436.52 L 437.77 433.85 L 440.54 437.81 C434.88,430.24 429.82,421.97 425.91,413.61 C424.18,409.92 422.97,406.69 423.23,406.44 C423.48,406.18 425.45,407.39 427.60,409.12 C431.45,412.22 440.49,416.97 442.57,416.99 C443.16,417.00 441.64,414.86 439.20,412.25 C430.46,402.88 425.83,394.46 422.16,381.25 C420.19,374.12 420.46,372.44 423.08,375.60 C425.42,378.42 435.34,385.64 440.40,388.21 C443.37,389.71 444.85,390.97 444.15,391.40 C443.25,391.97 442.89,392.55 442.95,392.94 C443.01,393.47 443.75,393.67 444.93,393.04 C445.47,392.75 445.93,392.53 446.34,392.36 L 446.34 392.36 C448.91,391.35 448.69,393.01 445.52,396.27 C445.15,396.65 444.83,397.00 444.54,397.30 C443.61,398.03 442.64,398.63 441.84,398.90 C440.28,399.45 439.00,400.19 439.00,400.56 C439.00,401.38 441.51,400.97 444.50,399.93 C445.89,399.63 448.53,398.43 450.85,397.00 C453.53,395.35 456.18,394.00 456.74,394.00 C457.30,394.00 458.31,395.34 458.99,396.98 C460.63,400.94 469.21,409.55 473.87,411.94 C486.66,418.46 501.25,416.42 512.75,406.51 C515.09,404.49 517.00,402.41 517.00,401.88 C517.00,401.35 517.88,399.97 518.95,398.82 C520.02,397.67 521.18,395.44 521.53,393.86 C521.88,392.29 522.54,391.00 523.00,391.00 C523.53,391.00 524.98,392.54 526.51,394.52 C528.12,396.61 529.83,399.19 530.65,400.98 C530.67,401.03 530.69,401.08 530.72,401.12 C531.74,403.51 531.51,404.06 528.17,407.15 C523.94,411.07 519.55,413.99 514.23,416.11 C509.66,417.64 503.85,419.00 497.43,420.06 C491.87,420.72 485.43,421.07 477.81,421.17 C469.18,421.29 462.35,421.75 462.62,422.19 C463.15,423.05 474.43,423.21 485.31,422.87 C491.09,422.93 498.35,422.51 501.57,421.94 ZM 562.69 522.82 C565.72,532.96 566.91,532.44 577.07,534.51 C587.15,536.56 608.76,542.59 626.00,548.16 C660.64,559.35 670.61,562.74 683.17,567.60 C700.13,574.15 704.62,576.38 708.75,580.30 C710.89,582.34 712.02,582.90 712.06,581.95 C712.18,579.18 714.15,585.57 716.69,597.00 C720.20,612.76 720.48,631.66 717.33,640.50 C712.07,655.27 707.69,663.35 690.64,689.75 C685.94,697.02 682.71,699.01 681.35,695.47 C680.39,692.97 683.07,684.81 684.65,685.42 C685.48,685.74 687.04,684.31 688.66,681.72 C690.11,679.40 694.16,673.16 697.66,667.86 C705.16,656.49 713.28,639.92 715.45,631.54 C717.45,623.84 717.45,612.33 715.45,607.55 C711.68,598.52 702.79,593.11 674.00,582.31 C666.03,579.32 653.88,574.69 647.00,572.03 C619.95,561.56 613.06,559.01 601.50,555.20 C594.90,553.02 585.11,550.19 579.75,548.92 C568.63,546.28 566.54,544.00 575.25,544.00 C586.23,544.00 599.13,547.99 647.50,566.31 C696.26,584.78 705.14,588.77 710.75,594.70 C714.36,598.53 714.61,598.40 712.65,593.72 C709.60,586.47 702.20,581.80 681.00,573.75 C668.83,569.14 626.62,554.41 620.00,552.47 C617.53,551.75 611.67,550.04 607.00,548.66 C587.39,542.91 583.10,541.75 575.25,540.07 C570.71,539.10 567.00,538.58 567.00,538.91 C567.00,540.38 572.20,558.41 576.66,572.72 C571.93,557.74 567.61,542.87 565.53,534.00 C564.86,531.15 563.80,526.99 562.69,522.82 ZM 209.42 442.13 C207.54,447.13 206.45,451.79 207.25,452.77 C208.63,454.48 208.72,454.35 212.95,444.49 C214.36,441.20 216.46,437.55 218.60,434.44 C216.41,437.67 214.23,441.51 212.70,445.09 C210.55,450.12 208.70,454.75 208.59,455.37 C208.48,455.99 207.68,457.85 206.81,459.50 C206.42,460.24 205.58,462.26 204.51,464.97 C205.56,462.16 206.29,460.21 206.49,459.75 C206.99,458.53 206.75,458.00 205.69,458.00 C204.61,458.00 202.55,462.85 198.58,474.75 C195.53,483.93 193.02,491.86 193.00,492.44 L 193.00 492.41 C193.00,491.86 194.97,485.53 197.39,478.34 C199.80,471.14 201.49,464.83 201.14,464.31 C200.50,463.36 175.66,458.32 158.00,455.56 C152.77,454.74 144.00,453.38 138.50,452.52 C115.90,449.01 98.71,448.17 87.37,450.01 C80.70,451.09 70.53,454.12 66.63,456.19 C63.40,457.91 56.32,466.87 55.45,470.36 C55.07,471.86 54.55,472.89 54.30,472.64 C53.12,471.45 61.59,448.36 67.30,437.20 C69.59,432.72 73.00,428.89 73.00,430.79 C73.00,431.39 72.55,432.16 71.99,432.50 C71.44,432.85 70.26,434.54 69.36,436.26 L 67.74 439.40 L 70.62 437.50 C76.40,433.70 78.96,432.95 88.14,432.35 C107.46,431.10 133.21,434.86 181.40,445.98 C191.03,448.20 200.05,450.45 201.45,450.98 C205.18,452.40 206.67,451.37 207.89,446.52 C208.16,445.45 208.72,443.87 209.42,442.13 ZM 434.57 735.98 L 444.52 728.22 C456.17,719.15 461.66,714.16 483.89,692.50 C510.89,666.19 516.99,660.00 515.88,660.00 C513.35,660.00 483.11,681.41 478.73,686.30 C477.75,687.39 476.66,687.99 476.30,687.64 C475.42,686.75 479.03,683.05 488.50,675.10 C497.39,667.64 514.76,655.13 519.70,652.62 C525.09,649.89 531.00,650.92 531.00,654.59 C531.00,655.24 524.14,662.69 515.75,671.16 C485.39,701.79 461.60,723.98 450.82,731.73 L 445.56 735.50 L 532.85 735.76 L 614.58 735.99 ZM 386.02 735.98 L 385.43 731.75 C384.89,727.91 384.67,726.17 383.71,725.51 C382.92,724.96 381.63,725.14 379.26,725.46 L 379.05 725.49 C373.46,726.26 370.00,725.50 370.00,723.51 C370.00,722.76 372.40,720.11 375.32,717.61 L 380.65 713.06 L 379.90 707.78 C378.81,700.11 378.85,693.21 380.00,692.50 C382.80,690.77 389.61,697.96 392.31,705.50 C392.50,706.05 395.95,703.46 399.95,699.75 C407.47,692.79 409.27,692.02 412.51,694.38 C414.32,695.71 414.12,696.26 408.20,706.55 C404.79,712.48 402.00,717.88 402.00,718.55 C402.00,719.23 405.04,721.72 408.75,724.10 C414.40,727.71 415.13,728.48 413.22,728.78 C411.97,728.98 407.99,728.16 404.39,726.96 C400.77,725.76 397.46,725.16 397.02,725.64 C396.57,726.11 395.77,728.64 395.23,731.25 L 394.25 735.98 ZM 289.31 735.97 L 269.34 735.97 L 266.23 733.75 C264.50,732.51 259.24,728.80 254.54,725.50 C249.84,722.20 239.36,714.65 231.25,708.72 C223.14,702.79 215.38,697.17 214.00,696.22 C199.91,686.55 167.11,657.89 148.37,638.86 C117.42,607.44 101.32,586.10 87.16,557.76 C78.30,540.03 75.40,529.60 77.50,523.00 C78.19,520.83 82.31,520.27 85.00,521.98 C86.12,522.69 85.73,522.88 83.50,522.72 C80.60,522.51 80.49,522.66 80.20,527.18 C79.24,542.00 101.28,582.04 127.22,612.60 C133.02,619.43 134.49,620.63 136.55,620.24 C138.03,619.95 139.00,620.23 139.00,620.94 C139.00,621.59 139.40,621.87 139.89,621.57 C140.37,621.27 141.32,621.68 141.99,622.49 C144.19,625.14 158.21,624.18 166.40,620.82 C169.01,619.75 174.64,617.75 180.70,615.73 C169.93,619.40 159.68,623.31 151.69,626.91 C153.48,626.03 155.00,625.12 155.00,624.76 C155.00,623.77 154.71,623.79 149.50,625.10 C145.90,626.01 144.55,625.92 141.91,624.60 C140.14,623.72 138.56,623.00 138.39,623.00 C137.74,623.00 142.53,627.42 144.01,628.23 C142.02,627.82 143.14,629.16 146.25,630.50 C146.66,630.68 147.02,630.83 147.37,630.96 C146.96,630.83 146.51,630.68 146.00,630.50 L 141.78 629.01 L 145.55 633.25 C166.14,656.42 212.65,694.62 258.93,726.39 C263.64,729.62 268.57,733.11 269.88,734.14 C271.64,735.51 273.56,735.88 289.31,735.97 ZM 359.52 722.35 L 366.02 735.98 L 352.29 735.97 L 351.74 728.75 C351.44,724.76 350.25,719.03 349.09,716.00 C347.94,712.97 347.00,708.88 347.00,706.91 C347.00,700.57 354.15,691.14 375.16,669.79 C382.50,662.32 385.12,660.77 386.53,663.05 C386.92,663.67 387.89,663.45 388.71,662.87 C386.27,666.20 380.54,672.81 372.83,681.12 C361.37,693.48 355.00,702.17 355.00,705.48 C355.00,706.36 355.69,708.52 356.65,711.00 C355.59,709.41 353.00,706.89 353.00,707.70 C353.00,708.25 355.93,714.84 359.52,722.35 ZM 61.28 454.44 L 59.26 459.93 L 63.77 454.92 C69.39,448.67 73.41,446.59 84.08,444.42 C90.85,443.05 95.35,442.84 107.00,443.36 C126.49,444.22 159.96,449.06 184.00,454.49 C200.82,458.29 203.06,458.67 202.72,457.66 C202.53,457.10 196.33,455.43 188.94,453.95 C181.55,452.46 168.98,449.84 161.00,448.13 C133.83,442.29 123.32,440.85 103.91,440.28 C74.33,439.40 65.77,442.25 61.28,454.44 ZM 475.77 372.42 L 475.77 372.42 C475.69,372.48 475.61,372.55 475.52,372.61 L 475.51 372.62 C474.46,373.38 473.04,374.00 472.33,374.00 C469.87,374.00 455.75,380.09 452.54,382.53 C451.04,383.68 449.45,384.65 448.68,384.93 C448.16,384.59 446.65,383.20 445.04,381.54 C440.76,377.13 441.23,376.54 453.57,370.97 L 462.88 366.76 C464.51,367.19 466.60,367.80 469.16,368.61 C476.32,370.87 477.18,371.30 475.77,372.42 ZM 527.59 616.22 C527.01,616.25 526.42,616.29 525.84,616.33 C521.51,616.67 516.36,617.75 514.27,618.76 C511.70,620.01 500.81,626.64 489.09,633.95 C499.81,627.19 508.10,621.78 508.84,621.03 C509.75,620.09 511.35,619.01 512.39,618.64 C513.43,618.26 514.06,617.73 513.79,617.45 C513.03,616.70 500.55,622.53 492.58,627.37 C488.69,629.73 480.33,634.75 474.00,638.51 C467.67,642.28 458.90,647.77 454.50,650.73 C450.10,653.68 447.85,654.96 449.50,653.56 C452.33,651.17 465.32,642.30 473.00,637.52 C474.92,636.32 479.65,633.31 483.50,630.82 C496.66,622.32 504.50,618.10 513.00,614.95 C521.12,611.93 521.96,611.82 532.00,612.37 C543.51,613.01 555.82,615.96 560.50,619.19 C563.11,621.00 570.86,629.65 574.81,635.17 C577.60,639.08 575.17,636.67 568.98,629.40 C562.00,621.20 560.26,620.01 550.74,616.90 C542.04,614.06 522.88,613.15 518.00,615.34 C514.61,616.86 514.81,616.89 524.50,616.34 C525.55,616.29 526.58,616.25 527.59,616.22 ZM 603.00 687.50 C603.00,686.67 602.17,686.00 601.15,686.00 C600.45,686.00 599.83,685.86 599.16,685.39 C599.56,685.59 599.89,685.57 600.21,685.37 C600.73,685.05 600.30,683.82 599.27,682.64 C597.12,680.20 594.70,674.97 595.39,674.28 C595.64,674.02 596.58,675.22 597.47,676.94 C598.36,678.66 599.52,679.80 600.04,679.47 C601.43,678.61 601.22,675.96 599.78,676.25 C598.98,676.42 598.33,674.30 597.88,670.00 C597.01,661.72 595.13,654.50 588.49,634.00 C579.98,607.70 571.92,580.73 572.27,579.69 C572.45,579.16 573.11,580.48 573.75,582.61 C576.21,590.91 590.18,633.31 595.58,648.87 C599.49,660.18 601.39,667.30 601.70,671.87 C602.22,679.52 603.42,683.47 604.56,683.88 C604.31,683.96 604.05,684.00 603.77,684.00 C602.06,684.00 601.95,684.24 603.04,685.55 C603.45,686.04 604.10,686.41 604.90,686.62 C603.69,686.81 603.00,687.21 603.00,687.75 C603.00,688.79 602.08,689.14 600.88,688.91 C602.09,689.11 603.00,688.67 603.00,687.50 ZM 399.28 608.62 C401.05,607.86 407.31,603.70 413.18,599.37 C419.06,595.04 426.90,589.47 430.61,587.00 C434.32,584.53 439.87,580.09 442.93,577.15 C449.12,571.21 448.25,571.33 440.00,577.57 C423.87,589.76 396.59,604.92 390.51,605.08 C388.85,605.12 388.06,605.38 388.75,605.66 C390.61,606.41 390.26,608.01 388.25,607.96 C387.29,607.93 384.76,607.29 382.62,606.53 C380.49,605.77 379.17,605.57 379.68,606.08 C381.07,607.47 389.03,609.79 392.78,609.90 C394.59,609.96 397.51,609.38 399.28,608.62 ZM 620.16 736.00 L 627.74 729.80 C647.80,713.41 670.05,686.91 682.35,664.75 C687.06,656.26 688.07,655.94 683.88,664.25 C675.18,681.54 654.64,708.34 637.13,725.25 L 626.00 736.00 ZM 258.02 443.02 C257.67,442.84 257.30,442.65 256.90,442.45 C246.59,437.23 246.04,437.42 252.50,444.00 C255.80,447.36 259.99,451.04 261.80,452.17 C263.62,453.30 264.88,454.45 264.60,454.73 C263.72,455.61 246.74,445.94 240.25,440.86 C236.81,438.17 234.00,436.16 234.00,436.39 C234.00,436.78 235.44,440.28 237.60,445.28 C236.41,442.60 235.31,440.17 234.53,438.50 C230.74,430.35 229.58,427.00 230.57,427.00 C230.96,427.00 234.26,428.97 237.91,431.37 C242.70,434.53 252.37,440.06 258.02,443.02 ZM 367.28 629.66 C367.58,630.10 367.88,630.55 368.18,631.00 C372.40,637.33 379.03,646.46 382.92,651.29 C383.29,651.75 383.65,652.19 384.00,652.63 C381.77,650.16 379.61,648.10 378.94,648.07 C378.08,648.03 376.50,647.21 375.44,646.25 C374.37,645.29 371.70,643.33 369.50,641.90 C365.83,639.51 363.79,638.30 354.19,632.85 C352.37,631.81 345.62,629.17 339.19,626.97 C332.76,624.78 326.60,622.56 325.50,622.04 C322.28,620.53 304.92,613.47 299.69,611.55 C297.04,610.58 295.10,609.57 295.36,609.30 C295.63,609.04 302.29,611.37 310.17,614.48 C329.38,622.07 332.85,623.30 344.33,626.55 C349.74,628.08 356.71,630.89 359.83,632.81 C362.95,634.72 366.65,636.88 368.05,637.62 C369.45,638.35 371.67,640.08 372.98,641.47 C374.28,642.86 375.83,643.99 376.42,643.98 C377.02,643.98 376.83,643.54 376.00,643.02 C375.17,642.50 374.49,641.72 374.47,641.29 C374.45,640.85 371.32,635.78 367.51,630.00 C367.43,629.89 367.35,629.77 367.28,629.66 ZM 340.98 735.97 L 321.97 735.97 C336.74,735.89 336.95,735.54 335.47,734.17 C334.39,733.17 325.85,726.77 316.50,719.95 C307.15,713.13 297.19,705.74 294.37,703.53 C291.55,701.31 285.77,696.80 281.52,693.50 C277.27,690.20 268.19,682.78 261.34,677.00 C254.49,671.22 247.00,665.00 244.69,663.17 C242.39,661.35 240.33,659.37 240.12,658.78 C239.91,658.19 245.60,662.61 252.76,668.60 C270.28,683.27 289.84,698.40 317.76,718.91 ZM 293.92 608.58 C294.86,609.52 292.00,608.74 282.50,605.48 C270.83,601.47 259.07,598.00 253.73,596.98 C247.42,595.78 232.34,597.85 216.00,602.16 C196.74,607.24 195.79,607.44 199.52,605.70 C207.89,601.79 233.21,596.25 246.50,595.42 L 256.50 594.80 L 275.00 601.48 C285.17,605.16 293.69,608.36 293.92,608.58 ZM 93.15 662.65 C99.20,677.67 104.01,690.65 103.83,691.50 C103.65,692.35 101.62,688.19 99.32,682.27 C97.02,676.35 93.73,668.12 92.00,664.00 C87.54,653.37 75.77,622.05 72.53,612.19 C69.44,602.78 69.68,599.76 72.81,608.69 C73.93,611.89 76.49,619.19 78.50,624.92 C80.51,630.66 87.10,647.64 93.15,662.65 ZM 445.22 362.24 C447.63,362.16 450.84,362.66 453.21,363.30 C455.19,364.01 456.23,364.66 456.27,365.15 C456.20,365.19 456.11,365.23 456.00,365.27 C455.56,365.41 454.27,365.68 452.57,366.01 C449.73,366.08 445.71,366.83 442.98,367.66 C440.70,368.06 438.72,368.43 437.82,368.62 C435.46,369.14 434.89,368.71 433.02,365.03 L 430.89 360.86 L 435.69 361.63 C438.34,362.05 442.62,362.33 445.22,362.24 ZM 622.04 218.69 C624.57,217.71 624.76,217.01 624.70,215.25 C624.40,206.89 625.08,166.75 625.51,167.17 C625.79,167.45 626.08,178.55 626.15,191.84 C626.29,215.68 626.32,216.00 628.40,215.99 C629.01,215.99 629.62,215.95 630.25,215.87 C627.80,216.77 625.03,217.72 622.04,218.69 ZM 221.00 191.63 C221.00,198.76 220.64,202.00 219.85,202.00 C219.02,202.00 218.86,198.75 219.28,190.25 C219.90,177.46 223.25,148.46 223.79,151.19 C223.97,152.12 223.42,159.27 222.56,167.07 C221.70,174.87 221.00,185.92 221.00,191.63 ZM 282.50 411.93 L 278.50 409.92 L 286.00 410.43 C290.12,410.71 293.64,410.95 293.81,410.97 C293.98,410.99 293.86,411.42 293.55,411.92 C293.23,412.43 293.77,413.06 294.74,413.31 C295.71,413.56 294.25,413.80 291.50,413.85 C288.35,413.90 285.02,413.19 282.50,411.93 ZM 342.85 201.25 C342.93,211.01 342.80,219.00 342.55,219.00 C341.29,219.00 341.01,211.05 341.82,198.00 L 342.71 183.50 ZM 274.00 355.12 C274.00,354.18 255.21,352.45 254.35,353.32 C254.06,353.60 256.46,354.13 259.67,354.49 C262.87,354.86 265.95,355.31 266.50,355.50 C268.62,356.23 274.00,355.96 274.00,355.12 ZM 447.93 116.39 C448.24,116.07 446.96,114.52 445.08,112.94 L 441.66 110.07 L 443.48 109.30 C442.97,109.56 442.64,109.77 442.56,109.90 C442.33,110.28 444.11,112.19 446.52,114.15 L 450.84 117.65 C446.22,118.30 441.46,118.91 437.09,119.40 C437.70,119.25 438.00,119.08 438.00,118.90 C438.00,118.40 434.94,118.00 431.20,118.00 C429.78,118.00 428.53,117.95 427.44,117.84 C429.37,117.89 432.10,117.80 435.93,117.59 C442.22,117.25 447.62,116.71 447.93,116.39 ZM 249.63 122.47 C250.47,124.67 249.73,125.62 247.50,125.17 C245.56,124.78 244.05,123.29 244.02,121.75 C243.99,120.35 249.06,120.99 249.63,122.47 ZM 523.00 219.77 C523.00,222.58 522.53,225.17 521.95,225.53 C521.24,225.97 521.13,224.46 521.59,220.84 C522.48,213.84 523.00,213.45 523.00,219.77 ZM 430.56 671.58 C427.54,673.78 426.30,673.25 428.75,670.81 C429.96,669.60 431.29,668.96 431.72,669.39 C432.15,669.81 431.62,670.80 430.56,671.58 ZM 357.12 712.20 C358.87,716.51 361.20,721.29 362.08,721.93 C361.92,721.98 361.73,722.00 361.51,722.00 C360.61,722.00 360.16,721.55 360.50,721.00 C360.84,720.45 360.61,720.00 360.00,720.00 C359.39,720.00 359.14,719.59 359.45,719.09 C359.76,718.58 359.49,718.00 358.85,717.78 C358.22,717.57 357.58,716.30 357.43,714.95 C357.31,713.86 357.19,712.75 357.12,712.20 ZM 553.57 508.80 C554.43,510.03 554.98,511.82 554.78,512.77 C554.54,513.95 554.04,513.42 553.21,511.10 C551.61,506.60 551.68,506.10 553.57,508.80 ZM 393.50 538.00 C393.84,538.55 393.22,539.00 392.12,539.00 C391.02,539.00 389.84,538.55 389.50,538.00 C389.16,537.45 389.78,537.00 390.88,537.00 C391.98,537.00 393.16,537.45 393.50,538.00 ZM 437.98 372.95 C436.96,371.06 437.04,371.01 438.94,372.19 C441.10,373.55 441.67,375.00 440.04,375.00 C439.50,375.00 438.58,374.08 437.98,372.95 ZM 242.00 115.00 C242.00,115.55 241.32,116.00 240.50,116.00 C239.68,116.00 239.00,115.55 239.00,115.00 C239.00,114.45 239.68,114.00 240.50,114.00 C241.32,114.00 242.00,114.45 242.00,115.00 ZM 381.47 422.02 C382.04,419.76 382.52,417.04 382.71,414.75 C383.38,406.96 384.75,405.83 385.20,412.71 C385.29,414.15 385.37,415.16 385.79,416.20 C385.41,415.37 385.26,414.61 385.19,413.71 C384.72,408.13 383.36,409.25 382.68,415.79 C382.50,417.48 382.12,419.51 381.66,421.37 C381.60,421.59 381.53,421.81 381.47,422.02 ZM 164.00 626.26 C173.28,622.29 185.02,618.11 196.84,614.43 C185.73,618.00 173.82,622.33 161.44,627.35 C162.24,627.01 163.09,626.65 164.00,626.26 ZM 364.00 724.00 C364.00,724.55 363.58,725.00 363.06,725.00 C362.54,725.00 361.84,724.55 361.50,724.00 C361.16,723.45 361.58,723.00 362.44,723.00 C363.30,723.00 364.00,723.45 364.00,724.00 ZM 443.58 441.73 C446.33,444.97 450.56,449.54 454.53,453.51 C456.56,455.55 458.30,457.24 459.87,458.69 C454.29,453.96 448.74,448.16 443.58,441.73 ZM 639.75 211.74 C640.27,211.34 640.76,210.91 641.23,210.46 C643.15,208.63 644.93,205.58 646.50,201.63 C644.69,207.38 644.18,207.86 640.48,211.20 C640.30,211.37 640.05,211.55 639.75,211.74 ZM 479.50 236.40 C485.42,236.86 502.17,236.59 518.39,235.94 C502.02,236.72 487.00,236.99 479.50,236.40 ZM 447.00 588.62 C447.00,588.41 447.79,587.63 448.75,586.87 C450.34,585.63 450.37,585.66 449.13,587.25 C447.82,588.92 447.00,589.45 447.00,588.62 ZM 241.04 453.14 C244.84,461.72 249.44,471.83 252.82,478.96 C249.01,471.11 245.18,462.82 242.27,456.00 C241.88,455.09 241.47,454.13 241.04,453.14 ZM 262.52 497.99 C265.37,502.96 268.09,506.91 271.51,511.04 C269.11,508.26 267.21,505.84 266.02,504.00 C265.11,502.60 263.91,500.53 262.52,497.99 ZM 213.35 605.86 C227.67,602.05 238.19,600.22 246.61,600.10 C242.76,600.19 238.37,600.67 233.00,601.53 C227.57,602.40 220.79,603.92 213.35,605.86 ZM 561.88 232.74 C570.81,231.73 578.02,230.57 585.96,228.78 C580.81,229.97 576.16,230.91 572.50,231.44 C569.41,231.89 565.82,232.32 561.88,232.74 ZM 559.53 507.19 C558.82,507.22 558.77,508.29 559.28,510.56 C558.81,508.99 558.47,507.96 558.35,507.76 C557.79,506.85 558.41,506.74 559.53,507.19 ZM 481.46 638.73 C467.84,647.30 455.27,655.42 455.42,655.75 C455.42,655.75 455.42,655.75 455.42,655.75 C455.14,655.48 466.67,647.93 481.05,638.99 ZM 232.09 605.25 C233.59,604.96 235.02,604.71 236.39,604.49 C250.16,602.25 258.13,602.63 269.29,606.56 C261.04,603.66 254.77,602.79 247.00,603.30 C242.55,603.59 237.55,604.25 232.09,605.25 ZM 544.49 617.79 C552.71,619.73 559.30,623.41 564.09,628.79 C559.46,623.59 552.56,619.81 544.49,617.79 ZM 295.95 535.87 C302.13,541.46 308.78,547.03 316.30,552.91 C313.18,550.49 310.23,548.15 307.50,545.93 C303.89,542.99 299.94,539.54 295.95,535.87 ZM 651.19 183.28 C652.35,176.05 653.00,168.01 653.00,159.85 C653.00,168.75 652.47,176.04 651.19,183.28 ZM 260.50 442.18 C257.76,440.94 252.67,436.40 248.21,431.44 C251.95,435.46 257.17,440.31 259.43,441.53 C259.91,441.79 260.36,442.05 260.77,442.31 C260.68,442.27 260.59,442.22 260.50,442.18 ZM 342.97 120.63 C313.38,120.45 305.02,120.69 305.00,121.53 L 305.00 121.51 C305.00,120.63 313.04,120.40 342.97,120.63 ZM 213.60 433.24 C215.63,428.97 215.11,428.32 211.58,430.03 C215.61,428.07 216.08,428.93 213.60,433.24 ZM 303.27 567.26 C305.31,569.03 307.61,570.98 310.18,573.12 C313.03,575.49 315.39,577.44 317.35,579.05 C312.49,575.22 307.57,571.08 303.27,567.26 ZM 605.78 682.85 C606.57,681.04 607.14,676.97 607.10,670.72 C607.15,677.51 606.80,681.18 605.78,682.85 ZM 499.90 40.08 C498.40,43.68 496.42,48.98 494.25,55.25 C492.27,60.98 490.04,67.36 488.06,72.95 C490.12,67.03 492.25,60.91 494.05,55.75 C496.31,49.25 498.36,43.77 499.90,40.08 ZM 580.80 585.52 C584.73,597.33 587.81,605.92 591.48,615.09 C590.19,611.94 589.10,609.18 588.38,607.25 C586.09,601.15 583.46,593.58 580.80,585.52 ZM 598.14 225.73 C603.22,224.36 608.89,222.72 615.55,220.75 C609.98,222.46 603.99,224.18 598.14,225.73 ZM 474.48 112.63 C474.32,112.98 474.19,113.21 474.10,113.30 C473.92,113.48 473.20,113.72 472.05,114.01 C473.20,113.61 473.95,113.18 474.48,112.63 ZM 422.94 116.58 C422.31,116.13 422.00,115.57 422.00,114.89 C422.00,114.75 422.29,114.58 422.78,114.41 C421.83,114.87 421.98,115.50 422.94,116.58 ZM 149.55 631.43 C150.71,631.44 152.11,631.09 154.44,630.22 C152.13,631.15 150.86,631.51 149.55,631.43 ZM 362.63 720.72 C362.43,719.49 361.70,717.34 360.38,714.13 C361.80,717.61 362.53,719.61 362.63,720.72 ZM 477.45 103.82 L 477.40 103.99 C476.98,105.43 476.55,106.83 476.13,108.09 C476.45,107.01 476.90,105.54 477.45,103.82 ZM 596.07 681.53 C594.37,678.79 592.05,674.41 588.50,667.50 C592.00,674.31 594.37,678.76 596.07,681.53 ZM 447.36 107.64 C448.20,107.29 449.01,106.97 449.70,106.71 C449.17,106.96 448.61,107.18 448.04,107.39 C447.81,107.47 447.59,107.55 447.36,107.64 ZM 420.20 120.60 C415.97,120.73 410.79,120.82 404.63,120.87 C410.61,120.81 415.81,120.72 420.20,120.60 ZM 610.82 684.54 C610.59,685.15 610.36,685.57 610.03,685.86 C610.34,685.54 610.59,685.12 610.82,684.54 ZM 194.98 490.07 C194.16,491.94 193.60,492.94 193.29,493.10 C193.60,492.93 194.16,491.93 194.98,490.07 ZM 396.22 427.13 C396.63,427.50 397.06,427.89 397.50,428.29 C400.67,431.17 404.65,434.52 408.55,437.64 C404.65,434.52 400.67,431.17 397.50,428.29 C397.06,427.89 396.63,427.51 396.22,427.13 ZM 389.90 660.43 C389.97,660.54 390.00,660.62 390.00,660.65 C389.98,660.65 389.95,660.55 389.90,660.43 ZM 262.76 443.83 C262.90,443.98 262.99,444.11 263.00,444.20 C262.95,444.08 262.87,443.96 262.76,443.83 ZM 480.19 472.00 C480.34,472.15 480.38,472.26 480.30,472.31 C480.38,472.26 480.33,472.15 480.19,472.00 Z" fill="rgb(170,170,170)"/>
<path d="M 57.38 729.54 C55.94,725.19 55.59,722.81 56.29,722.11 C56.98,721.42 56.86,720.46 55.90,719.13 C55.13,718.05 51.29,712.74 47.38,707.33 C36.61,692.48 35.73,690.06 35.22,674.11 C34.75,659.27 35.67,646.66 37.05,649.12 C37.51,649.96 39.01,654.81 40.37,659.91 C41.73,665.00 43.10,669.44 43.42,669.75 C44.67,671.00 44.92,669.20 43.95,665.93 C42.73,661.79 36.97,640.32 32.31,622.50 C22.71,585.85 17.08,548.89 16.76,520.54 C16.58,504.49 17.05,501.94 22.48,489.00 C38.84,450.06 55.27,424.58 68.41,417.75 C77.60,412.98 102.89,414.74 144.00,423.01 C149.23,424.06 160.70,425.86 169.50,427.01 C178.30,428.15 189.55,429.81 194.50,430.68 C205.11,432.56 206.73,432.54 210.59,430.53 C215.66,427.89 215.97,428.77 212.42,435.59 C210.53,439.21 208.49,444.13 207.89,446.52 C206.67,451.37 205.18,452.40 201.45,450.98 C200.05,450.45 191.03,448.20 181.40,445.98 C133.21,434.86 107.46,431.10 88.14,432.35 C78.96,432.95 76.40,433.70 70.62,437.50 L 67.74 439.40 L 69.36 436.26 C70.26,434.54 71.44,432.85 71.99,432.50 C72.55,432.16 73.00,431.39 73.00,430.79 C73.00,428.89 69.59,432.72 67.30,437.20 C61.59,448.36 53.12,471.45 54.30,472.64 C54.55,472.89 55.07,471.86 55.45,470.36 C56.32,466.87 63.40,457.91 66.63,456.19 C70.53,454.12 80.70,451.09 87.37,450.01 C98.71,448.17 115.90,449.01 138.50,452.52 C144.00,453.38 152.77,454.74 158.00,455.56 C175.66,458.32 200.50,463.36 201.14,464.31 C201.49,464.83 199.80,471.14 197.39,478.34 C194.97,485.53 193.00,491.86 193.00,492.41 C193.00,495.11 195.22,490.22 199.99,477.00 C202.87,469.02 205.94,461.15 206.81,459.50 C207.68,457.85 208.48,455.99 208.59,455.37 C208.70,454.75 210.55,450.12 212.70,445.09 C216.25,436.78 223.34,427.00 225.82,427.00 C226.26,427.00 232.35,439.71 239.34,455.25 C255.24,490.59 262.92,505.12 270.26,513.74 C275.12,519.45 277.00,522.94 282.38,536.17 C285.88,544.79 289.76,553.26 290.99,554.99 C294.54,559.97 310.20,573.86 323.13,583.50 C326.08,585.70 335.72,594.70 344.54,603.50 C356.71,615.64 362.24,622.03 367.51,630.00 C371.32,635.78 374.45,640.85 374.47,641.29 C374.49,641.72 375.17,642.50 376.00,643.02 C376.83,643.54 377.02,643.98 376.42,643.98 C375.83,643.99 374.28,642.86 372.98,641.47 C371.67,640.08 369.45,638.35 368.05,637.62 C366.65,636.88 362.95,634.72 359.83,632.81 C356.71,630.89 349.74,628.08 344.33,626.55 C332.85,623.30 329.38,622.07 310.17,614.48 C302.29,611.37 295.63,609.04 295.36,609.30 C295.10,609.57 297.04,610.58 299.69,611.55 C304.92,613.47 322.28,620.53 325.50,622.04 C326.60,622.56 332.76,624.78 339.19,626.97 C345.62,629.17 352.37,631.81 354.19,632.85 C363.79,638.30 365.83,639.51 369.50,641.90 C371.70,643.33 374.37,645.29 375.44,646.25 C376.50,647.21 378.08,648.03 378.94,648.07 C380.50,648.14 390.00,659.11 390.00,660.84 C390.00,662.46 387.25,664.21 386.53,663.05 C385.12,660.77 382.50,662.32 375.16,669.79 C354.15,691.14 347.00,700.57 347.00,706.91 C347.00,708.88 347.94,712.97 349.09,716.00 C350.25,719.03 351.44,724.76 351.74,728.75 L 352.29 736.00 L 346.65 736.00 L 341.02 736.00 L 317.76 718.91 C289.84,698.40 270.28,683.27 252.76,668.60 C245.60,662.61 239.91,658.19 240.12,658.78 C240.33,659.37 242.39,661.35 244.69,663.17 C247.00,665.00 254.49,671.22 261.34,677.00 C268.19,682.78 277.27,690.20 281.52,693.50 C285.77,696.80 291.55,701.31 294.37,703.53 C297.19,705.74 307.15,713.13 316.50,719.95 C325.85,726.77 334.39,733.17 335.47,734.17 C337.39,735.95 336.47,736.00 304.86,736.00 C274.58,736.00 272.10,735.87 269.88,734.14 C268.57,733.11 263.64,729.62 258.93,726.39 C212.65,694.62 166.14,656.42 145.55,633.25 L 141.78 629.01 L 146.00 630.50 C150.02,631.92 150.52,631.86 156.36,629.44 C193.03,614.19 226.04,604.67 247.00,603.30 C256.22,602.70 263.33,604.03 274.14,608.40 C277.37,609.71 280.25,610.41 280.52,609.96 C281.10,609.03 267.69,603.68 259.29,601.49 C245.64,597.93 227.23,600.96 188.90,613.06 C180.31,615.78 170.19,619.26 166.40,620.82 C158.21,624.18 144.19,625.14 141.99,622.49 C141.32,621.68 140.37,621.27 139.89,621.57 C139.40,621.87 139.00,621.59 139.00,620.94 C139.00,620.23 138.03,619.95 136.55,620.24 C134.49,620.63 133.02,619.43 127.22,612.60 C101.28,582.04 79.24,542.00 80.20,527.18 C80.49,522.66 80.60,522.51 83.50,522.72 C85.73,522.88 86.12,522.69 85.00,521.98 C82.31,520.27 78.19,520.83 77.50,523.00 C75.40,529.60 78.30,540.03 87.16,557.76 C101.32,586.10 117.42,607.44 148.37,638.86 C167.11,657.89 199.91,686.55 214.00,696.22 C215.38,697.17 223.14,702.79 231.25,708.72 C239.36,714.65 249.84,722.20 254.54,725.50 C259.24,728.80 264.50,732.51 266.23,733.75 L 269.39 736.00 L 164.44 735.98 L 59.50 735.95 L 57.38 729.54 ZM 93.15 662.65 C87.10,647.64 80.51,630.66 78.50,624.92 C76.49,619.19 73.93,611.89 72.81,608.69 C69.68,599.76 69.44,602.78 72.53,612.19 C75.77,622.05 87.54,653.37 92.00,664.00 C93.73,668.12 97.02,676.35 99.32,682.27 C101.62,688.19 103.65,692.35 103.83,691.50 C104.01,690.65 99.20,677.67 93.15,662.65 ZM 50.00 688.15 C50.00,685.72 47.62,681.00 46.40,681.00 C44.60,681.00 44.63,682.38 46.53,686.05 C47.96,688.81 50.00,690.05 50.00,688.15 ZM 331.00 627.00 C331.00,626.45 330.07,626.00 328.94,626.00 C327.81,626.00 327.16,626.45 327.50,627.00 C327.84,627.55 328.77,628.00 329.56,628.00 C330.35,628.00 331.00,627.55 331.00,627.00 ZM 296.50 616.00 C296.16,615.45 295.46,615.00 294.94,615.00 C294.42,615.00 294.00,615.45 294.00,616.00 C294.00,616.55 294.70,617.00 295.56,617.00 C296.42,617.00 296.84,616.55 296.50,616.00 ZM 293.92 608.58 C293.69,608.36 285.17,605.16 275.00,601.48 L 256.50 594.80 L 246.50 595.42 C233.21,596.25 207.89,601.79 199.52,605.70 C195.79,607.44 196.74,607.24 216.00,602.16 C232.34,597.85 247.42,595.78 253.73,596.98 C259.07,598.00 270.83,601.47 282.50,605.48 C292.00,608.74 294.86,609.52 293.92,608.58 ZM 185.52 516.31 C187.71,511.05 188.36,508.00 187.29,508.00 C186.51,508.00 183.00,517.28 183.00,519.34 C183.00,521.01 184.11,519.68 185.52,516.31 ZM 359.52 722.35 C355.93,714.84 353.00,708.25 353.00,707.70 C353.00,706.71 356.92,710.75 357.08,711.90 C357.13,712.23 357.29,713.60 357.43,714.95 C357.58,716.30 358.22,717.57 358.85,717.78 C359.49,718.00 359.76,718.58 359.45,719.09 C359.14,719.59 359.39,720.00 360.00,720.00 C360.61,720.00 360.84,720.45 360.50,721.00 C360.16,721.55 360.61,722.00 361.51,722.00 C363.26,722.00 363.07,720.70 360.38,714.13 C358.50,709.54 358.64,702.97 360.68,699.97 C361.61,698.61 366.22,693.44 370.93,688.47 C375.64,683.51 386.08,671.79 394.13,662.43 C410.60,643.29 428.42,624.49 466.31,586.32 C480.60,571.92 493.80,557.97 495.64,555.32 C497.48,552.67 502.30,542.40 506.35,532.50 C512.27,518.01 515.44,511.85 522.60,500.93 C527.50,493.47 533.30,483.91 535.50,479.69 C537.70,475.47 539.83,472.02 540.24,472.01 C540.65,472.00 542.34,473.87 544.00,476.16 C546.00,478.93 549.04,486.71 553.08,499.41 C561.61,526.22 561.38,525.45 567.04,546.50 C575.33,577.35 585.91,608.37 599.27,641.00 C606.22,657.98 607.04,661.08 607.10,670.72 C607.21,687.64 602.84,688.58 601.70,671.87 C601.39,667.30 599.49,660.18 595.58,648.87 C590.18,633.31 576.21,590.91 573.75,582.61 C573.11,580.48 572.45,579.16 572.27,579.69 C571.92,580.73 579.98,607.70 588.49,634.00 C595.13,654.50 597.01,661.72 597.88,670.00 C598.33,674.30 598.98,676.42 599.78,676.25 C601.22,675.96 601.43,678.61 600.04,679.47 C599.52,679.80 598.36,678.66 597.47,676.94 C596.58,675.22 595.64,674.02 595.39,674.28 C594.70,674.97 597.12,680.20 599.27,682.64 C600.30,683.82 600.73,685.05 600.21,685.37 C598.64,686.34 596.54,683.15 588.50,667.50 C580.08,651.11 570.65,636.14 564.09,628.79 C555.89,619.58 542.40,615.34 524.50,616.34 C514.81,616.89 514.61,616.86 518.00,615.34 C522.88,613.15 542.04,614.06 550.74,616.90 C560.26,620.01 562.00,621.20 568.98,629.40 C575.17,636.67 577.60,639.08 574.81,635.17 C570.86,629.65 563.11,621.00 560.50,619.19 C555.82,615.96 543.51,613.01 532.00,612.37 C521.96,611.82 521.12,611.93 513.00,614.95 C504.50,618.10 496.66,622.32 483.50,630.82 C479.65,633.31 474.92,636.32 473.00,637.52 C465.32,642.30 452.33,651.17 449.50,653.56 C447.85,654.96 450.10,653.68 454.50,650.73 C458.90,647.77 467.67,642.28 474.00,638.51 C480.33,634.75 488.69,629.73 492.58,627.37 C500.55,622.53 513.03,616.70 513.79,617.45 C514.06,617.73 513.43,618.26 512.39,618.64 C511.35,619.01 509.75,620.09 508.84,621.03 C507.92,621.96 495.42,630.05 481.05,638.99 C466.67,647.93 455.14,655.48 455.42,655.75 C455.69,656.03 467.07,649.57 480.71,641.42 C494.34,633.26 508.88,624.83 513.00,622.69 L 520.50 618.79 L 534.01 619.16 C546.57,619.50 547.85,619.72 552.18,622.26 C561.13,627.51 572.27,642.55 586.42,668.50 C591.21,677.30 596.08,685.51 597.24,686.75 C599.51,689.18 603.00,689.78 603.00,687.75 C603.00,686.98 604.40,686.50 606.68,686.50 C610.04,686.50 610.43,686.20 611.28,683.00 C612.96,676.64 611.65,662.17 608.79,655.50 C607.38,652.20 603.03,642.19 599.12,633.25 C590.62,613.77 586.50,602.90 579.30,581.00 C574.59,566.65 567.00,540.69 567.00,538.91 C567.00,538.58 570.71,539.10 575.25,540.07 C583.10,541.75 587.39,542.91 607.00,548.66 C611.67,550.04 617.53,551.75 620.00,552.47 C626.62,554.41 668.83,569.14 681.00,573.75 C702.20,581.80 709.60,586.47 712.65,593.72 C714.61,598.40 714.36,598.53 710.75,594.70 C705.14,588.77 696.26,584.78 647.50,566.31 C599.13,547.99 586.23,544.00 575.25,544.00 C566.54,544.00 568.63,546.28 579.75,548.92 C585.11,550.19 594.90,553.02 601.50,555.20 C613.06,559.01 619.95,561.56 647.00,572.03 C653.88,574.69 666.03,579.32 674.00,582.31 C702.79,593.11 711.68,598.52 715.45,607.55 C717.45,612.33 717.45,623.84 715.45,631.54 C713.28,639.92 705.16,656.49 697.66,667.86 C694.16,673.16 690.11,679.40 688.66,681.72 C687.04,684.31 685.48,685.74 684.65,685.42 C683.07,684.81 680.39,692.97 681.35,695.47 C682.71,699.01 685.94,697.02 690.64,689.75 C707.69,663.35 712.07,655.27 717.33,640.50 C720.48,631.66 720.20,612.76 716.69,597.00 C714.15,585.57 712.18,579.18 712.06,581.95 C712.02,582.90 710.89,582.34 708.75,580.30 C704.62,576.38 700.13,574.15 683.17,567.60 C670.61,562.74 660.64,559.35 626.00,548.16 C608.76,542.59 587.15,536.56 577.07,534.51 C564.53,531.96 565.66,533.34 560.11,513.75 C558.02,506.37 558.56,505.61 563.18,509.50 C564.82,510.88 567.13,512.00 568.33,512.00 C569.53,512.00 574.56,513.59 579.51,515.54 C595.02,521.64 635.03,533.71 663.83,540.98 C696.74,549.30 707.70,552.77 712.47,556.41 C716.62,559.58 721.90,570.10 730.08,591.50 C736.18,607.47 736.52,610.74 734.14,631.26 C733.08,640.32 733.04,643.34 733.95,644.44 C734.90,645.59 731.91,652.23 718.74,678.18 C697.11,720.81 693.03,727.92 687.59,732.37 L 683.16 736.00 L 654.58 736.00 L 625.99 736.00 L 637.13 725.25 C654.64,708.34 675.18,681.54 683.88,664.25 C688.07,655.94 687.06,656.26 682.35,664.75 C670.05,686.91 647.80,713.41 627.74,729.80 L 620.14 736.01 L 532.85 735.76 L 445.56 735.50 L 450.82 731.73 C461.60,723.98 485.39,701.79 515.75,671.16 C524.14,662.69 531.00,655.24 531.00,654.59 C531.00,650.92 525.09,649.89 519.70,652.62 C514.76,655.13 497.39,667.64 488.50,675.10 C479.03,683.05 475.42,686.75 476.30,687.64 C476.66,687.99 477.75,687.39 478.73,686.30 C483.11,681.41 513.35,660.00 515.88,660.00 C516.99,660.00 510.89,666.19 483.89,692.50 C461.66,714.16 456.17,719.15 444.52,728.22 L 434.55 736.00 L 414.40 736.00 L 394.24 736.00 L 395.23 731.25 C395.77,728.64 396.57,726.11 397.02,725.64 C397.46,725.16 400.77,725.76 404.39,726.96 C407.99,728.16 411.97,728.98 413.22,728.78 C415.13,728.48 414.40,727.71 408.75,724.10 C405.04,721.72 402.00,719.23 402.00,718.55 C402.00,717.88 404.79,712.48 408.20,706.55 C414.12,696.26 414.32,695.71 412.51,694.38 C409.27,692.02 407.47,692.79 399.95,699.75 C395.95,703.46 392.50,706.05 392.31,705.50 C389.61,697.96 382.80,690.77 380.00,692.50 C378.85,693.21 378.81,700.11 379.90,707.78 L 380.65 713.06 L 375.32 717.61 C372.40,720.11 370.00,722.76 370.00,723.51 C370.00,725.50 373.46,726.26 379.05,725.49 C384.52,724.74 384.44,724.66 385.43,731.75 L 386.02 736.00 L 376.03 736.00 L 366.04 736.00 L 359.52 722.35 ZM 364.00 724.00 C364.00,723.45 363.30,723.00 362.44,723.00 C361.58,723.00 361.16,723.45 361.50,724.00 C361.84,724.55 362.54,725.00 363.06,725.00 C363.58,725.00 364.00,724.55 364.00,724.00 ZM 430.56 671.58 C431.62,670.80 432.15,669.81 431.72,669.39 C431.29,668.96 429.96,669.60 428.75,670.81 C426.30,673.25 427.54,673.78 430.56,671.58 ZM 553.57 508.80 C551.68,506.10 551.61,506.60 553.21,511.10 C554.04,513.42 554.54,513.95 554.78,512.77 C554.98,511.82 554.43,510.03 553.57,508.80 ZM 144.19 628.32 C142.99,627.84 137.71,623.00 138.39,623.00 C138.56,623.00 140.14,623.72 141.91,624.60 C144.55,625.92 145.90,626.01 149.50,625.10 C154.71,623.79 155.00,623.77 155.00,624.76 C155.00,625.55 147.59,629.06 146.24,628.92 C145.83,628.88 144.91,628.61 144.19,628.32 ZM 383.39 596.05 C377.44,594.63 360.10,584.61 344.00,573.30 C316.29,553.83 298.90,539.61 282.87,523.33 C268.24,508.47 264.52,503.11 254.35,482.16 C247.89,468.85 234.00,437.61 234.00,436.39 C234.00,436.16 236.81,438.17 240.25,440.86 C246.74,445.94 263.72,455.61 264.60,454.73 C264.88,454.45 263.62,453.30 261.80,452.17 C259.99,451.04 255.80,447.36 252.50,444.00 C246.04,437.42 246.59,437.23 256.90,442.45 C262.35,445.21 263.00,445.40 263.00,444.23 C263.00,443.80 261.40,442.59 259.43,441.53 C255.70,439.53 244.00,427.67 244.00,425.90 C244.00,425.33 244.54,425.23 245.25,425.68 C251.45,429.66 278.91,431.77 302.53,430.07 C335.07,427.74 347.71,427.59 356.50,429.40 C360.87,430.31 364.85,431.45 365.35,431.95 C366.63,433.23 365.48,437.01 362.48,441.44 C361.06,443.53 360.12,445.46 360.40,445.73 C360.67,446.00 362.87,444.60 365.30,442.61 C367.72,440.63 370.25,439.00 370.91,439.00 C371.57,439.00 373.72,437.90 375.69,436.57 C378.90,434.39 379.43,434.29 380.79,435.65 C382.15,437.01 382.14,437.71 380.65,442.33 C378.98,447.54 377.67,449.99 370.65,461.06 C367.59,465.89 366.59,468.67 365.79,474.63 C364.06,487.58 364.87,489.90 374.69,500.08 C383.51,509.24 386.56,511.22 388.17,508.86 C389.12,507.47 389.02,504.32 387.02,472.00 C386.39,461.83 386.02,450.67 386.19,447.22 L 386.50 440.94 L 389.59 443.72 C407.10,459.50 434.06,475.70 452.06,481.25 C456.70,482.68 464.55,484.58 469.50,485.49 C474.45,486.39 479.17,487.32 480.00,487.56 C482.20,488.21 479.21,486.16 471.98,482.05 C466.00,478.66 453.49,468.18 454.36,467.30 C454.61,467.06 456.43,467.30 458.40,467.84 C464.11,469.42 463.53,467.40 457.74,465.56 C448.89,462.74 430.77,453.45 419.87,446.13 C414.17,442.30 404.10,434.27 397.50,428.29 C385.69,417.60 385.50,417.35 385.20,412.71 C384.75,405.83 383.38,406.96 382.71,414.75 C382.39,418.46 381.34,423.30 380.36,425.50 L 378.58 429.50 L 377.95 423.00 C376.97,413.10 374.48,406.19 369.92,400.78 C364.13,393.93 354.90,378.94 348.01,365.23 L 342.11 353.50 L 342.05 360.19 C341.99,367.92 343.78,376.39 348.01,388.37 C349.65,393.03 351.00,397.15 351.00,397.53 C351.00,398.42 342.61,389.09 338.12,383.21 C334.78,378.84 322.00,358.48 322.00,357.53 C322.00,357.28 320.65,354.94 319.00,352.34 C317.35,349.74 316.00,347.25 316.00,346.80 C316.00,343.98 375.25,348.25 409.50,353.54 C427.02,356.25 425.40,355.51 428.62,362.32 C432.47,370.49 438.58,379.58 442.94,383.63 C445.30,385.83 445.97,386.96 444.93,386.97 C442.26,387.02 431.24,379.77 424.02,373.23 C416.79,366.68 415.26,365.75 416.96,368.93 C417.53,370.00 418.00,372.49 418.00,374.48 C418.00,380.24 420.89,390.21 425.02,398.67 C427.12,402.97 428.64,406.69 428.40,406.93 C428.16,407.17 426.18,405.63 424.00,403.50 C421.19,400.75 419.42,397.74 417.90,393.07 C414.39,382.31 412.17,381.63 414.58,392.04 C418.62,409.52 426.75,426.70 437.48,440.44 C444.34,449.22 458.80,463.43 462.75,465.27 C463.99,465.85 465.00,466.91 465.00,467.63 C465.00,468.34 465.80,469.36 466.77,469.88 C469.11,471.13 479.26,472.96 480.30,472.31 C480.75,472.04 477.39,469.95 472.84,467.68 C466.09,464.31 462.69,461.69 454.53,453.51 C449.01,447.99 442.98,441.31 441.13,438.66 L 437.77 433.85 L 443.03 436.52 C452.44,441.28 461.50,443.12 454.25,438.79 C448.62,435.43 444.00,430.33 444.00,427.47 L 444.00 424.71 L 454.25 425.25 C471.20,426.14 510.63,436.25 521.51,442.50 C527.68,446.04 538.76,457.35 539.83,461.18 C540.65,464.13 540.20,465.55 535.74,474.00 C523.26,497.63 515.00,509.14 499.08,525.10 C486.31,537.90 463.67,556.66 447.50,567.85 C445.30,569.37 441.25,572.18 438.50,574.10 C429.66,580.26 413.71,589.75 406.03,593.43 C399.86,596.38 397.51,596.98 392.53,596.90 C389.21,596.84 385.10,596.46 383.39,596.05 ZM 393.50 538.00 C393.16,537.45 391.98,537.00 390.88,537.00 C389.78,537.00 389.16,537.45 389.50,538.00 C389.84,538.55 391.02,539.00 392.12,539.00 C393.22,539.00 393.84,538.55 393.50,538.00 ZM 61.28 454.44 C65.77,442.25 74.33,439.40 103.91,440.28 C123.32,440.85 133.83,442.29 161.00,448.13 C168.98,449.84 181.55,452.46 188.94,453.95 C196.33,455.43 202.53,457.10 202.72,457.66 C203.06,458.67 200.82,458.29 184.00,454.49 C159.96,449.06 126.49,444.22 107.00,443.36 C95.35,442.84 90.85,443.05 84.08,444.42 C73.41,446.59 69.39,448.67 63.77,454.92 L 59.26 459.93 L 61.28 454.44 ZM 554.76 443.75 C554.25,433.43 551.06,421.11 545.79,409.14 L 543.75 404.50 L 541.33 409.90 C538.71,415.73 537.59,415.68 536.69,409.70 C536.17,406.28 536.37,405.80 538.81,404.80 C541.01,403.89 541.17,403.61 539.70,403.26 C538.71,403.03 537.25,403.38 536.45,404.04 C535.36,404.95 535.00,404.96 535.00,404.07 C535.00,403.42 533.87,401.23 532.49,399.20 C531.11,397.17 530.37,395.38 530.85,395.22 C532.02,394.83 571.49,414.83 574.75,417.46 C575.26,417.88 572.80,429.54 572.03,430.34 C571.58,430.81 570.68,429.57 570.03,427.59 C568.47,422.87 567.32,423.06 565.97,428.25 C563.54,437.63 556.95,454.00 555.61,454.00 C555.42,454.00 555.04,449.39 554.76,443.75 ZM 228.22 419.72 C217.29,410.04 204.41,395.97 195.29,383.75 C188.58,374.74 185.59,372.68 186.59,377.75 C187.06,380.12 186.13,381.55 179.82,388.11 C171.99,396.24 167.07,399.81 168.44,396.37 C171.42,388.84 173.22,378.05 172.68,370.94 L 172.09 363.35 L 179.79 360.75 C187.59,358.13 216.02,352.00 220.42,352.00 C222.55,352.00 222.89,352.58 223.53,357.25 C223.93,360.14 224.63,363.50 225.09,364.71 C225.55,365.93 225.56,367.15 225.12,367.42 C224.68,367.70 221.10,368.00 217.16,368.10 C213.22,368.20 210.00,368.51 210.00,368.79 C210.00,369.07 211.57,371.67 213.50,374.57 C215.43,377.47 217.00,380.47 217.00,381.24 C217.00,386.93 227.98,410.90 235.54,421.72 C237.96,425.17 239.39,427.98 238.72,427.97 C238.05,427.95 233.32,424.23 228.22,419.72 ZM 631.45 354.83 C633.44,345.98 638.55,295.90 640.10,270.00 C640.71,259.83 641.36,251.33 641.56,251.13 C641.75,250.93 643.69,252.17 645.87,253.90 C652.50,259.15 660.37,262.22 667.59,262.37 C671.12,262.44 674.00,262.75 674.00,263.06 C674.00,263.37 670.15,267.29 665.44,271.77 C658.15,278.72 646.94,287.19 643.55,288.32 C642.03,288.82 651.31,301.19 657.16,306.46 C660.05,309.05 664.91,312.45 667.96,314.00 L 673.50 316.82 L 670.50 318.03 C668.85,318.69 663.22,319.93 658.00,320.80 C652.78,321.66 648.17,322.84 647.76,323.43 C647.36,324.02 645.82,327.65 644.34,331.50 C638.93,345.60 629.80,362.12 631.45,354.83 ZM 114.53 329.25 C117.39,308.29 125.03,287.45 137.32,267.10 C140.45,261.93 143.00,257.51 143.00,257.28 C143.00,257.05 139.51,257.16 135.25,257.52 C124.27,258.44 116.04,256.83 106.00,251.78 L 97.50 247.51 L 108.00 246.88 C115.60,246.42 120.30,245.55 125.04,243.75 C138.60,238.56 147.92,232.97 156.66,224.74 C159.49,222.07 162.09,220.34 162.43,220.88 C162.77,221.43 161.48,228.32 159.58,236.19 C157.68,244.06 154.93,256.12 153.47,263.00 C150.82,275.51 142.63,302.39 140.75,304.75 C140.20,305.44 138.73,306.00 137.47,306.00 C134.28,306.00 123.82,317.63 118.80,326.75 C116.61,330.74 114.61,334.00 114.35,334.00 C114.09,334.00 114.17,331.86 114.53,329.25 ZM 479.50 236.40 C476.75,236.19 468.42,235.55 461.00,234.98 C446.20,233.84 387.08,227.38 355.50,223.44 C337.48,221.20 330.18,220.15 310.50,216.99 C273.17,210.99 273.80,211.07 237.50,206.96 C216.25,204.55 193.40,198.44 177.45,190.90 C171.85,188.26 171.14,187.59 170.53,184.32 C169.70,179.90 170.67,133.89 172.09,110.50 C173.28,90.76 174.76,84.75 181.81,71.00 C193.44,48.31 209.72,26.85 229.40,8.25 L 238.13 -0.00 L 406.82 0.02 L 575.50 0.05 L 581.71 5.27 C593.34,15.05 614.74,39.47 623.19,52.60 C632.23,66.65 637.62,81.49 646.38,116.50 C652.22,139.83 653.00,144.93 653.00,159.85 C653.00,182.46 647.98,204.04 641.23,210.46 C637.63,213.89 632.77,215.98 628.40,215.99 C626.32,216.00 626.29,215.68 626.15,191.84 C626.08,178.55 625.79,167.45 625.51,167.17 C625.08,166.75 624.40,206.89 624.70,215.25 C624.79,217.84 624.34,218.13 616.65,220.42 C584.24,230.05 575.11,231.82 544.01,234.46 C525.49,236.03 488.88,237.13 479.50,236.40 ZM 469.01 218.25 C475.72,211.06 495.18,186.31 502.21,176.00 L 503.92 173.50 L 508.13 178.00 C515.91,186.32 521.46,192.45 528.94,201.00 C545.80,220.29 554.34,227.92 555.52,224.78 C555.79,224.08 553.50,212.48 550.45,199.00 C541.51,159.55 538.76,146.06 539.37,144.47 C540.02,142.78 539.37,143.08 559.57,135.13 C573.40,129.68 599.00,117.61 599.00,116.53 C599.00,116.28 597.99,115.51 596.75,114.83 C595.14,113.95 584.64,113.44 560.11,113.05 L 525.71 112.50 L 521.86 98.50 C516.83,80.25 513.76,67.48 510.54,51.50 C507.93,38.58 506.19,35.00 502.52,35.00 C501.79,35.00 498.28,43.59 494.05,55.75 C490.07,67.16 484.47,83.25 481.59,91.50 C478.71,99.75 476.05,107.97 475.70,109.77 C474.91,113.72 473.72,114.23 460.70,116.21 L 450.91 117.70 L 446.52 114.15 C444.11,112.19 442.33,110.28 442.56,109.90 C442.80,109.52 445.26,108.39 448.04,107.39 C451.29,106.22 454.01,104.37 455.68,102.18 C457.10,100.31 459.83,98.14 461.74,97.34 C465.15,95.91 465.18,95.85 463.36,93.84 C460.39,90.57 454.58,91.86 450.05,96.82 C447.82,99.26 444.89,101.21 442.46,101.89 C435.24,103.89 434.43,103.25 438.65,98.84 C440.87,96.53 441.09,95.82 440.03,94.54 C438.53,92.73 434.57,92.56 430.10,94.12 C427.04,95.18 426.97,95.31 428.60,97.12 C430.21,98.89 430.21,99.11 428.54,100.96 C426.83,102.85 426.87,103.02 429.64,105.80 C431.22,107.38 433.19,108.94 434.01,109.27 C436.56,110.30 432.46,112.75 426.92,113.51 C424.22,113.88 422.00,114.51 422.00,114.89 C422.00,116.98 425.02,118.00 431.20,118.00 C434.94,118.00 438.00,118.40 438.00,118.90 C438.00,120.63 410.06,121.28 357.75,120.76 C315.59,120.35 305.00,120.50 305.00,121.51 C305.00,124.01 308.72,127.11 322.67,136.23 C342.35,149.11 341.16,148.17 337.00,147.61 C330.54,146.74 303.53,140.95 301.05,139.90 C299.12,139.08 298.90,138.68 300.02,137.99 C301.83,136.87 301.29,136.40 297.18,135.52 C294.32,134.91 293.91,135.06 294.18,136.66 C294.56,138.84 295.68,138.93 279.50,135.49 C267.35,132.90 261.89,131.00 266.61,131.00 C267.71,131.00 269.47,130.38 270.50,129.62 C272.24,128.35 272.26,128.12 270.76,126.62 C268.63,124.49 268.00,124.58 268.00,127.00 C268.00,128.24 267.34,128.99 266.25,128.98 C264.08,128.97 261.78,127.57 261.97,126.39 C262.04,125.90 261.41,125.35 260.55,125.18 C257.73,124.59 259.07,127.89 262.38,129.70 C266.76,132.09 261.52,131.51 247.00,128.00 C238.48,125.94 230.30,123.77 228.83,123.18 C227.36,122.59 225.34,122.15 224.33,122.20 C223.32,122.25 220.36,121.95 217.75,121.53 C213.19,120.80 212.18,121.31 213.77,123.53 C214.17,124.10 218.55,126.42 223.50,128.70 C228.45,130.97 236.55,134.72 241.50,137.04 C270.24,150.47 320.86,172.52 370.00,193.03 C383.48,198.65 396.19,203.85 398.25,204.58 C401.87,205.86 402.00,205.83 402.00,203.65 C402.00,201.30 396.94,192.41 383.16,170.55 C378.67,163.43 375.00,157.03 375.00,156.33 C375.00,155.49 375.95,155.20 377.75,155.50 C401.37,159.32 419.53,161.06 442.75,161.70 L 465.00 162.31 L 465.00 164.90 C465.00,169.60 461.14,191.27 457.52,206.92 C455.56,215.38 454.21,223.10 454.53,224.08 C455.05,225.72 456.63,226.58 459.67,226.88 C460.31,226.95 464.51,223.06 469.01,218.25 ZM 523.00 219.77 C523.00,213.45 522.48,213.84 521.59,220.84 C521.13,224.46 521.24,225.97 521.95,225.53 C522.53,225.17 523.00,222.58 523.00,219.77 ZM 342.85 201.25 L 342.71 183.50 L 341.82 198.00 C341.01,211.05 341.29,219.00 342.55,219.00 C342.80,219.00 342.93,211.01 342.85,201.25 ZM 221.00 191.63 C221.00,185.92 221.70,174.87 222.56,167.07 C223.42,159.27 223.97,152.12 223.79,151.19 C223.25,148.46 219.90,177.46 219.28,190.25 C218.86,198.75 219.02,202.00 219.85,202.00 C220.64,202.00 221.00,198.76 221.00,191.63 ZM 289.90 129.25 C289.96,128.56 289.39,128.00 288.64,128.00 C287.73,128.00 287.43,127.18 287.76,125.50 C288.03,124.04 287.77,123.00 287.12,123.00 C286.50,123.00 286.00,123.85 286.00,124.89 C286.00,126.08 285.06,127.02 283.50,127.41 C279.85,128.33 280.31,130.39 284.00,129.65 C286.64,129.12 287.00,129.33 287.00,131.36 C287.00,136.38 289.48,134.58 289.90,129.25 ZM 278.00 128.00 C278.00,127.45 277.13,127.00 276.06,127.00 C274.99,127.00 273.84,127.45 273.50,128.00 C273.15,128.57 273.99,129.00 275.44,129.00 C276.85,129.00 278.00,128.55 278.00,128.00 ZM 249.63 122.47 C249.06,120.99 243.99,120.35 244.02,121.75 C244.05,123.29 245.56,124.78 247.50,125.17 C249.73,125.62 250.47,124.67 249.63,122.47 ZM 373.50 115.88 C380.88,114.70 384.80,113.15 386.95,110.57 C388.55,108.64 390.00,108.54 390.00,110.37 C390.00,111.12 390.93,112.92 392.07,114.37 C393.64,116.36 395.03,117.00 397.82,116.99 C402.39,116.98 409.18,114.96 415.60,111.70 C424.81,107.03 426.00,103.28 419.69,98.78 C417.13,96.95 415.29,96.53 410.32,96.63 C403.90,96.77 401.20,98.03 394.60,103.91 C392.64,105.65 391.88,105.96 392.28,104.85 C392.60,103.94 392.28,102.40 391.57,101.43 C390.42,99.86 390.81,99.40 395.14,97.24 C400.34,94.65 401.02,93.23 398.25,90.74 C396.26,88.95 384.86,86.45 374.50,85.53 C370.65,85.18 365.87,84.67 363.88,84.39 C360.86,83.95 360.18,84.20 359.74,85.89 C359.45,87.00 359.80,88.71 360.52,89.69 C361.76,91.40 361.90,91.40 363.85,89.64 C364.96,88.63 366.39,88.12 367.02,88.51 C368.97,89.72 362.08,96.00 358.80,96.00 C355.60,96.00 355.35,96.62 357.57,99.07 C359.01,100.67 358.84,101.22 355.47,105.90 C353.07,109.24 351.09,111.00 349.72,111.00 C347.73,111.00 347.75,111.13 350.27,113.75 C352.57,116.17 353.75,116.54 359.70,116.75 C363.44,116.88 369.65,116.49 373.50,115.88 ZM 242.00 115.00 C242.00,114.45 241.32,114.00 240.50,114.00 C239.68,114.00 239.00,114.45 239.00,115.00 C239.00,115.55 239.68,116.00 240.50,116.00 C241.32,116.00 242.00,115.55 242.00,115.00 ZM 344.37 111.97 C346.54,109.39 346.76,108.57 345.83,106.52 C344.09,102.71 342.01,102.60 338.38,106.12 C335.13,109.26 335.02,109.29 327.86,108.62 C323.88,108.25 320.43,107.76 320.20,107.53 C319.97,107.31 323.66,102.07 328.39,95.91 C335.12,87.16 336.75,84.41 335.88,83.35 C333.72,80.76 331.45,82.15 325.00,90.05 C321.42,94.43 317.52,99.21 316.33,100.67 L 314.16 103.34 L 311.49 100.17 C308.99,97.19 306.18,96.16 304.68,97.66 C304.31,98.02 304.49,98.89 305.08,99.59 C306.64,101.48 304.71,104.44 300.63,106.37 C297.21,107.99 294.00,108.51 294.00,107.43 C294.00,106.02 299.39,100.00 300.65,100.00 C302.65,100.00 303.57,96.97 301.90,95.91 C299.09,94.14 297.16,95.11 293.12,100.34 C288.55,106.27 288.24,107.50 290.65,110.17 C292.71,112.44 302.15,112.69 306.18,110.59 C308.59,109.33 309.04,109.38 310.59,111.10 C311.93,112.58 313.76,113.02 318.90,113.09 C322.53,113.14 327.75,113.53 330.50,113.95 C340.11,115.45 341.62,115.24 344.37,111.97 ZM 469.72 111.75 C470.25,111.06 470.97,109.71 471.31,108.75 C471.82,107.34 471.37,107.00 469.04,107.00 C467.02,107.00 465.94,107.61 465.50,108.99 C464.38,112.51 467.54,114.58 469.72,111.75 ZM 260.40 108.03 C262.54,107.54 264.64,106.59 265.06,105.91 C265.62,105.00 266.67,105.38 268.99,107.34 C272.64,110.41 275.27,110.64 281.23,108.38 C285.19,106.88 291.95,100.71 291.99,98.56 C292.02,96.58 287.53,93.00 285.03,93.00 C283.58,93.00 281.89,92.49 281.27,91.87 C279.21,89.81 275.55,91.87 271.08,97.61 C267.00,102.85 266.59,103.12 265.85,101.12 C264.68,97.95 262.23,97.43 259.69,99.82 C258.12,101.29 254.30,102.47 246.49,103.87 C240.45,104.95 235.28,105.61 235.00,105.33 C233.68,103.98 261.01,81.48 268.50,77.76 C272.24,75.90 279.00,74.62 279.00,75.76 C279.00,77.32 276.57,79.83 270.70,84.35 C267.50,86.80 265.27,89.05 265.73,89.33 C266.19,89.62 269.69,88.54 273.49,86.93 C282.75,83.03 287.17,77.57 283.80,74.20 C282.06,72.46 273.44,72.73 269.70,74.63 C262.62,78.24 239.64,96.29 233.00,103.47 L 230.50 106.17 L 233.00 108.21 C235.29,110.07 236.37,110.19 246.00,109.58 C251.77,109.21 258.25,108.52 260.40,108.03 ZM 474.55 94.46 C475.82,90.08 478.72,82.00 481.00,76.50 C487.18,61.56 487.53,60.34 486.03,58.54 C483.72,55.75 482.09,56.86 480.60,62.25 C470.00,100.62 469.34,103.39 470.98,102.84 C471.68,102.61 473.28,98.84 474.55,94.46 ZM 360.00 110.48 C360.00,110.04 361.16,107.69 362.59,105.26 C364.34,102.26 365.65,101.04 366.67,101.43 C367.49,101.74 372.06,102.02 376.83,102.04 L 385.50 102.08 L 382.02 105.06 C380.10,106.70 376.95,108.48 375.02,109.03 C369.96,110.47 360.00,111.43 360.00,110.48 ZM 398.00 110.12 C398.00,109.63 399.80,107.61 402.00,105.62 C405.55,102.41 406.61,102.00 411.25,102.03 C416.22,102.06 416.39,102.15 414.50,103.65 C412.21,105.47 400.56,111.00 399.02,111.00 C398.46,111.00 398.00,110.60 398.00,110.12 ZM 370.00 94.68 C370.00,94.36 370.53,92.93 371.17,91.52 C372.30,89.05 372.60,88.97 378.21,89.60 C381.43,89.97 385.51,90.57 387.28,90.94 L 390.50 91.62 L 388.00 92.98 C385.52,94.34 370.00,95.80 370.00,94.68 ZM 272.00 105.18 C272.00,104.73 273.61,102.48 275.58,100.18 C278.26,97.04 279.89,96.00 282.08,96.00 C283.69,96.00 285.00,96.38 285.00,96.85 C285.00,98.53 279.94,103.13 276.53,104.55 C272.52,106.23 272.00,106.30 272.00,105.18 Z" fill="rgb(253,253,253)"/>
</g>
</svg>